<svg xmlns="http://www.w3.org/2000/svg" xmlns:xlink="http://www.w3.org/1999/xlink" xmlns:lucid="lucid" width="1020.52" height="714.55"><g transform="translate(-159.47564043526864 -254.73933756477254)" lucid:page-tab-id="h1.Z1NVTeYa5"><path d="M180 668c0-4.42 3.58-8 8-8h964c4.42 0 8 3.58 8 8v264c0 4.42-3.58 8-8 8H188c-4.42 0-8-3.58-8-8zM179.48 282.74c0-4.42 3.58-8 8-8h964c4.4 0 8 3.58 8 8V640.8c0 4.43-3.6 8-8 8h-964c-4.42 0-8-3.57-8-8z" stroke="#000" fill-opacity="0"/><path d="M542.17 381.52c0-4.42 3.6-8 8-8h239.66c4.4 0 8 3.58 8 8v22.7c0 4.4-3.6 8-8 8H550.17c-4.4 0-8-3.6-8-8z" fill="none"/><use xlink:href="#a" transform="matrix(1,0,0,1,542.1739130434783,373.5195196291611) translate(77.07606336805556 28.82840711805556)"/><path d="M904.26 412.8c0 19.66-18.15 35.62-40.53 35.62-22.4 0-40.54-15.96-40.54-35.63 0-19.7 18.14-35.64 40.53-35.64 22.38 0 40.53 15.95 40.53 35.63z" stroke="#984ea3" fill="#984ea3" fill-opacity=".4"/><path d="M811.62 403c0-4.4 3.58-8 8-8h84.52c4.42 0 8 3.6 8 8v19.56c0 4.42-3.58 8-8 8h-84.52c-4.42 0-8-3.58-8-8z" stroke="#000" stroke-opacity="0" fill="#fff" fill-opacity="0"/><use xlink:href="#b" transform="matrix(1,0,0,1,816.4197551391486,399.8128678452293) translate(13.156249999999996 20.66701388888889)"/><use xlink:href="#c" transform="matrix(1,0,0,1,816.4197551391486,399.8128678452293) translate(68.95486111111111 20.66701388888889)"/><path d="M987.83 333.63c0 29.62-28.62 53.63-63.92 53.63s-63.9-24-63.9-53.63C860 304 888.6 280 923.9 280s63.93 24 63.93 53.63z" stroke="#377eb8" fill="#377eb8" fill-opacity=".4"/><path d="M872.17 324.9c0-4.43 3.6-8 8-8h87.48c4.42 0 8 3.57 8 8v24.85c0 4.4-3.58 8-8 8h-87.48c-4.4 0-8-3.6-8-8z" stroke="#000" stroke-opacity="0" fill-opacity="0"/><use xlink:href="#b" transform="matrix(1,0,0,1,876.9739130434782,321.6854123212715) translate(14.656249999999996 21.04201388888889)"/><use xlink:href="#d" transform="matrix(1,0,0,1,876.9739130434782,321.6854123212715) translate(70.45486111111111 21.04201388888889)"/><path d="M585.3 412.22h153.53M585.3 412.22h-.5" stroke="#666" fill="none"/><path d="M753.6 412.22l-14.27 4.63v-9.27z" stroke="#666" fill="#666"/><path d="M259.07 560.88c0-4.4 3.58-8 8-8h239.65c4.42 0 8 3.6 8 8V612c0 4.42-3.58 8-8 8H267.07c-4.42 0-8-3.58-8-8z" stroke="#000" stroke-opacity="0" fill="#377eb8" fill-opacity=".54"/><use xlink:href="#e" transform="matrix(1,0,0,1,264.0696359035305,557.8833487774622) translate(40.861111111111114 22.825)"/><use xlink:href="#f" transform="matrix(1,0,0,1,264.0696359035305,557.8833487774622) translate(122.97222222222223 22.825)"/><use xlink:href="#g" transform="matrix(1,0,0,1,264.0696359035305,557.8833487774622) translate(14.416666666666668 46.825)"/><use xlink:href="#h" transform="matrix(1,0,0,1,264.0696359035305,557.8833487774622) translate(125.19444444444446 46.825)"/><use xlink:href="#i" transform="matrix(1,0,0,1,264.0696359035305,557.8833487774622) translate(185.08333333333334 46.825)"/><path d="M300 348c0-4.42 3.58-8 8-8h146.07c4.42 0 8 3.58 8 8v6.94c0 4.42-3.58 8-8 8H308c-4.42 0-8-3.58-8-8z" stroke="#000" stroke-opacity="0" fill="#fff" fill-opacity="0"/><use xlink:href="#j" transform="matrix(1,0,0,1,305,345) translate(29.091145833333325 26.963020833333335)"/><path d="M963.1 515.47v43.7" stroke="#666" fill="none"/><path d="M963.6 515.48h-1v-.5h1z" fill="#666"/><path d="M963.1 573.92l-4.64-14.26h9.27z" stroke="#666" fill="#666"/><path d="M755.22 550.68c0-4.42 3.58-8 8-8h58.62c4.42 0 8 3.58 8 8v9.8c0 4.42-3.58 8-8 8h-58.62c-4.42 0-8-3.58-8-8z" stroke="#000" stroke-opacity="0" fill="#377eb8" fill-opacity=".54"/><use xlink:href="#k" transform="matrix(1,0,0,1,760.217391304348,547.6813085885459) translate(16.018880208333332 15.081510416666667)"/><use xlink:href="#l" transform="matrix(1,0,0,1,760.217391304348,547.6813085885459) translate(42.314453125 15.081510416666667)"/><path d="M533.77 604.7c0-4.43 3.6-8 8-8h239.66c4.4 0 8 3.57 8 8v22.7c0 4.4-3.6 8-8 8H541.77c-4.4 0-8-3.6-8-8z" stroke="#000" stroke-opacity="0" fill="#fff" fill-opacity="0"/><use xlink:href="#m" transform="matrix(1,0,0,1,538.7739130434782,601.6923108786646) translate(50.7734375 26.963020833333335)"/><use xlink:href="#n" transform="matrix(1,0,0,1,538.7739130434782,601.6923108786646) translate(128.57291666666669 26.963020833333335)"/><path d="M219.96 906.57c0-4.42 3.58-8 8-8H467.6c4.43 0 8 3.58 8 8v12.64c0 4.43-3.57 8-8 8H227.97c-4.42 0-8-3.57-8-8z" stroke="#000" stroke-opacity="0" fill="#fff" fill-opacity="0"/><use xlink:href="#o" transform="matrix(1,0,0,1,224.95957035518285,903.5713256505989) translate(55.23307291666667 26.963020833333335)"/><use xlink:href="#p" transform="matrix(1,0,0,1,224.95957035518285,903.5713256505989) translate(171.50911458333334 26.963020833333335)"/><path d="M853.7 351.58c0 23.5-22.5 42.55-50.27 42.55-27.76 0-50.26-19.05-50.26-42.55 0-23.5 22.5-42.56 50.26-42.56 27.76 0 50.26 19.05 50.26 42.56z" stroke="#e41a1c" fill="#e41a1c" fill-opacity=".4"/><path d="M753.17 342.7c0-4.43 3.58-8 8-8h84.52c4.4 0 8 3.57 8 8v13.28c0 4.4-3.6 8-8 8h-84.53c-4.42 0-8-3.6-8-8z" stroke="#000" stroke-opacity="0" fill="#fff" fill-opacity="0"/><use xlink:href="#b" transform="matrix(1,0,0,1,757.9721569480628,339.4858054907606) translate(13.156249999999996 19.04201388888889)"/><use xlink:href="#q" transform="matrix(1,0,0,1,757.9721569480628,339.4858054907606) translate(68.95486111111111 19.04201388888889)"/><path d="M894.33 316.32c-3.32.38-6.3-1.7-6.63-4.63-.34-2.94 2.08-5.64 5.4-6.02 3.33-.38 6.3 1.7 6.64 4.62.34 2.94-2.08 5.64-5.4 6.02z" stroke="#000" stroke-opacity=".03" stroke-width="3" fill="#377eb8"/><path d="M885.04 405.7c-3.32.4-6.3-1.67-6.63-4.6-.33-2.95 2.1-5.64 5.42-6.03 3.32-.38 6.3 1.7 6.63 4.63.34 2.94-2.08 5.63-5.4 6z" stroke="#000" stroke-opacity=".03" stroke-width="3" fill="#984ea3"/><path d="M784.05 368.72c2.13 2.18 2.14 5.64 0 7.72-2.1 2.08-5.57 2-7.7-.2-2.14-2.2-2.15-5.64-.02-7.72 2.12-2.08 5.58-2 7.72.2z" stroke="#000" stroke-opacity=".03" stroke-width="3" fill="#e41a1c"/><path d="M890.23 435.18c-3.32.4-6.3-1.68-6.63-4.62-.34-2.94 2.08-5.63 5.4-6.02 3.33-.38 6.3 1.7 6.64 4.63.34 2.94-2.08 5.63-5.4 6z" stroke="#984ea3" stroke-width="3" fill="#333"/><path d="M848.93 401.83c-3.33.4-6.3-1.68-6.64-4.62-.35-2.93 2.07-5.62 5.4-6 3.32-.4 6.3 1.68 6.63 4.62.34 2.94-2.08 5.63-5.4 6z" stroke="#000" stroke-opacity=".03" stroke-width="3" fill="#984ea3"/><path d="M807.35 323.6c2.14 2.18 2.15 5.64.02 7.7-2.13 2.1-5.58 2-7.72-.18-2.14-2.2-2.15-5.65-.02-7.73s5.58-2 7.72.2zM835.1 335.1c2.14 2.2 2.15 5.64.02 7.72-2.12 2.08-5.58 2-7.72-.2-2.13-2.18-2.14-5.64-.02-7.72 2.13-2.08 5.6-2 7.72.2zM818.8 373.1c2.15 2.2 2.15 5.66.03 7.73-2.13 2.08-5.6 2-7.72-.2-2.13-2.18-2.14-5.64 0-7.72 2.12-2.06 5.57-1.98 7.7.2zM777.26 332.6c2.14 2.2 2.15 5.65.02 7.73-2.13 2.07-5.58 2-7.72-.2-2.14-2.2-2.14-5.65-.02-7.72 2.13-2.07 5.58-1.98 7.72.2z" stroke="#000" stroke-opacity=".03" stroke-width="3" fill="#e41a1c"/><path d="M836.94 437.8c-3.33.38-6.3-1.7-6.64-4.63-.34-2.94 2.08-5.63 5.4-6.02 3.33-.38 6.3 1.7 6.64 4.63.34 2.94-2.08 5.63-5.4 6z" stroke="#000" stroke-opacity=".03" stroke-width="3" fill="#984ea3"/><path d="M937.77 316.32c-3.32.38-6.3-1.7-6.63-4.63-.34-2.94 2.08-5.64 5.4-6.02 3.33-.38 6.3 1.7 6.64 4.62.34 2.94-2.08 5.64-5.4 6.02zM901.42 373.16c-3.33.4-6.3-1.68-6.64-4.62-.33-2.94 2.1-5.63 5.4-6.02 3.34-.38 6.3 1.7 6.64 4.63.34 2.94-2.08 5.63-5.4 6zM941.9 371.02c-3.33.38-6.3-1.7-6.64-4.63-.34-2.95 2.08-5.64 5.4-6.02 3.33-.4 6.3 1.68 6.64 4.62.34 2.94-2.08 5.63-5.4 6.02zM967.5 332.67c-3.32.4-6.3-1.68-6.63-4.62-.34-2.94 2.08-5.63 5.4-6.02 3.33-.38 6.3 1.7 6.64 4.63.35 2.94-2.07 5.63-5.4 6z" stroke="#000" stroke-opacity=".03" stroke-width="3" fill="#377eb8"/><path d="M1080.25 337.3c0 22.48-20.82 40.72-46.52 40.72-25.7 0-46.52-18.24-46.52-40.73 0-22.5 20.84-40.73 46.53-40.73 25.7 0 46.52 18.23 46.52 40.72z" stroke="#4daf4a" fill="#4daf4a" fill-opacity=".4"/><path d="M1014.53 321.7c-3.32.38-6.3-1.7-6.63-4.63-.34-2.94 2.08-5.63 5.4-6 3.33-.4 6.3 1.67 6.64 4.6.34 2.95-2.08 5.64-5.4 6.03zM1037 315.23c-3.33.38-6.3-1.7-6.64-4.63-.34-2.94 2.08-5.63 5.4-6 3.33-.4 6.3 1.67 6.64 4.6.34 2.95-2.08 5.65-5.4 6.03zM1029.88 373.64c-3.32.4-6.3-1.68-6.63-4.62-.34-2.94 2.08-5.63 5.4-6.02 3.33-.38 6.3 1.7 6.64 4.63.33 2.94-2.1 5.63-5.42 6z" stroke="#000" stroke-opacity=".03" stroke-width="3" fill="#4daf4a"/><path d="M983.47 326.22c0-4.42 3.58-8 8-8H1076c4.4 0 8 3.58 8 8v13.3c0 4.4-3.6 8-8 8h-84.53c-4.42 0-8-3.6-8-8z" stroke="#000" stroke-opacity="0" fill="#fff" fill-opacity="0"/><use xlink:href="#b" transform="matrix(1,0,0,1,988.2718219558344,323.01782734044474) translate(13.156249999999996 19.04201388888889)"/><use xlink:href="#r" transform="matrix(1,0,0,1,988.2718219558344,323.01782734044474) translate(68.95486111111111 19.04201388888889)"/><path d="M1060.73 324c-3.32.4-6.3-1.68-6.63-4.62-.34-2.94 2.08-5.63 5.4-6.02 3.33-.38 6.3 1.7 6.64 4.63.34 2.93-2.08 5.62-5.4 6z" stroke="#000" stroke-opacity=".03" stroke-width="3" fill="#4daf4a"/><path d="M866.94 334.98c-3.32.4-6.3-1.7-6.63-4.62-.33-2.94 2.1-5.64 5.4-6.02 3.34-.38 6.3 1.7 6.65 4.63.34 2.93-2.08 5.63-5.4 6z" stroke="#000" stroke-opacity=".03" stroke-width="3" fill="#377eb8"/><path d="M1002.54 401.88c-3.32.38-6.3-1.7-6.63-4.63-.33-2.94 2.1-5.63 5.42-6 3.32-.4 6.3 1.68 6.63 4.6.34 2.95-2.08 5.65-5.4 6.03z" stroke="#000" stroke-opacity=".03" stroke-width="3" fill="#ff7f00"/><path d="M1003.82 441.24c-3.32.38-6.3-1.7-6.63-4.63-.35-2.93 2.07-5.62 5.4-6 3.32-.4 6.3 1.7 6.63 4.62.34 2.94-2.08 5.64-5.4 6.02z" stroke="#ff7f00" stroke-width="3" fill="#333"/><path d="M966.23 405.7c-3.33.4-6.3-1.67-6.64-4.6-.35-2.95 2.07-5.64 5.4-6.03 3.32-.38 6.3 1.7 6.63 4.63.34 2.94-2.08 5.63-5.4 6z" stroke="#000" stroke-opacity=".03" stroke-width="3" fill="#ff7f00"/><path d="M917.34 294.98c-3.32.4-6.3-1.7-6.63-4.62-.33-2.94 2.1-5.64 5.42-6.02 3.32-.38 6.3 1.7 6.63 4.63.34 2.93-2.08 5.63-5.4 6z" stroke="#000" stroke-opacity=".03" stroke-width="3" fill="#377eb8"/><path d="M842 364.08c2.14 2.2 2.15 5.65.02 7.72-2.13 2.08-5.58 2-7.72-.2-2.14-2.18-2.15-5.64-.02-7.72 2.13-2.07 5.58-2 7.72.2z" stroke="#e41a1c" stroke-width="3" fill="#333"/><path d="M1050.26 361.2c-3.32.4-6.3-1.68-6.63-4.62-.34-2.94 2.08-5.63 5.4-6.02 3.33-.38 6.3 1.7 6.64 4.63.33 2.93-2.1 5.62-5.4 6z" stroke="#4daf4a" stroke-width="3" fill="#333"/><path d="M975.45 364.3c-3.32.4-6.3-1.68-6.63-4.6-.34-2.95 2.08-5.65 5.4-6.03 3.33-.38 6.3 1.7 6.64 4.63.34 2.93-2.08 5.63-5.4 6z" stroke="#0c7cba" stroke-width="3" fill="#333"/><path d="M871.78 447.3c-3.33.4-6.3-1.67-6.64-4.6-.34-2.95 2.08-5.64 5.4-6.03 3.33-.38 6.3 1.7 6.64 4.63.34 2.94-2.08 5.63-5.4 6z" stroke="#000" stroke-opacity=".03" stroke-width="3" fill="#984ea3"/><path d="M755.22 496.67c0-4.42 3.58-8 8-8h279.26c4.42 0 8 3.58 8 8v9.8c0 4.42-3.58 8-8 8H763.22c-4.42 0-8-3.58-8-8z" stroke="#333" fill="#666" fill-opacity=".33"/><use xlink:href="#s" transform="matrix(1,0,0,1,760.217391304348,493.67030629842736) translate(122.25292968750001 17.061762152777778)"/><path d="M1050.48 496.67c0-4.42 3.58-8 8-8h69.22c4.42 0 8 3.58 8 8v10.74c0 4.43-3.58 8-8 8h-69.22c-4.42 0-8-3.57-8-8z" stroke="#0c7cba" fill="#666" fill-opacity=".13"/><use xlink:href="#t" transform="matrix(1,0,0,1,1055.4819770087224,493.6703062984273) translate(9.91569010416666 17.061762152777778)"/><path d="M238.25 877.6H466.7M238.26 877.6h-.5" stroke="#666" fill="none"/><path d="M479.15 879.7l-14.84 2.2 1.54-9.13z" stroke="#666" fill="#666"/><path d="M255.02 846.38c0-4.42 3.58-8 8-8h5.3c4.42 0 8 3.58 8 8v24.88c0 4.42-3.58 8-8 8h-5.3c-4.42 0-8-3.58-8-8z" stroke="#b2b2b2" fill="#b2b2b2"/><path d="M281 832.75c0-4.42 3.57-8 8-8h5.3c4.4 0 8 3.58 8 8v38.5c0 4.43-3.6 8-8 8H289c-4.43 0-8-3.57-8-8zM309.55 819.13c0-4.42 3.58-8 8-8h5.3c4.42 0 8 3.58 8 8v52.13c0 4.42-3.58 8-8 8h-5.3c-4.42 0-8-3.58-8-8z" stroke="#000" stroke-opacity="0" fill="#0c7cba"/><path d="M340 819.13c0-4.42 3.57-8 8-8h5.3c4.4 0 8 3.58 8 8v52.13c0 4.42-3.6 8-8 8H348c-4.43 0-8-3.58-8-8z" stroke="#000" stroke-opacity="0" fill="#b2b2b2"/><path d="M370.1 791.87c0-4.42 3.58-8 8-8h5.3c4.42 0 8 3.58 8 8v79.4c0 4.4-3.58 8-8 8h-5.3c-4.42 0-8-3.6-8-8zM400 805.5c0-4.42 3.57-8 8-8h5.3c4.4 0 8 3.58 8 8v65.76c0 4.42-3.6 8-8 8H408c-4.43 0-8-3.58-8-8z" stroke="#000" stroke-opacity="0" fill="#0c7cba"/><path d="M428.78 778.24c0-4.4 3.58-8 8-8h5.3c4.42 0 8 3.6 8 8v93.02c0 4.42-3.58 8-8 8h-5.3c-4.42 0-8-3.58-8-8z" stroke="#000" stroke-opacity="0" fill="#b2b2b2"/><path d="M242.34 877.1V774.05M242.34 877.1v.5" stroke="#666" fill="none"/><path d="M240.27 761.6l6.92 13.3-9.16 1.53z" stroke="#666" fill="#666"/><path d="M249.1 698.94c0-4.42 3.58-8 8-8h163.7c4.43 0 8 3.58 8 8v44c0 4.4-3.57 8-8 8H257.1c-4.42 0-8-3.6-8-8z" stroke="#000" stroke-opacity="0" fill="#377eb8" fill-opacity=".54"/><use xlink:href="#u" transform="matrix(1,0,0,1,254.09909374640944,695.9351155637678) translate(23.90136718750001 24.209765625)"/><use xlink:href="#v" transform="matrix(1,0,0,1,254.09909374640944,695.9351155637678) translate(70.00488281250001 24.209765625)"/><use xlink:href="#w" transform="matrix(1,0,0,1,254.09909374640944,695.9351155637678) translate(85.00488281250001 24.209765625)"/><use xlink:href="#x" transform="matrix(1,0,0,1,254.09909374640944,695.9351155637678) translate(66.669921875 47.2078125)"/><path d="M240 496.2c0-4.42 3.58-8 8-8h279.26c4.42 0 8 3.58 8 8v9.8c0 4.42-3.58 8-8 8H248c-4.42 0-8-3.58-8-8z" stroke="#333" fill="#666" fill-opacity=".33"/><use xlink:href="#s" transform="matrix(1,0,0,1,245,493.2006098968079) translate(122.25292968750001 17.061762152777778)"/><path d="M534.3 496.2c0-4.42 3.6-8 8-8h69.23c4.4 0 8 3.58 8 8v10.74c0 4.42-3.6 8-8 8H542.3c-4.4 0-8-3.58-8-8z" stroke="#0c7cba" fill="#666" fill-opacity=".13"/><use xlink:href="#t" transform="matrix(1,0,0,1,539.3079332874559,493.2006098968078) translate(9.91569010416666 17.061762152777778)"/><path d="M386.17 515v18.7h.73v2.8" stroke="#666" fill="none"/><path d="M386.67 515h-1v-.5h1z" fill="#666"/><path d="M386.9 551.27L382.26 537h9.27z" stroke="#666" fill="#666"/><path d="M386.68 445.22v21h.95v5.1M386.68 445.23v-.5" stroke="#333" fill="none"/><path d="M387.63 486.08L383 471.82h9.27z" stroke="#333" fill="#333"/><path d="M845.8 688c0-4.42 3.57-8 8-8H923c4.43 0 8 3.58 8 8v10.74c0 4.42-3.57 8-8 8h-69.2c-4.43 0-8-3.58-8-8z" stroke="#3278cc" fill="#666" fill-opacity=".13"/><use xlink:href="#t" transform="matrix(1,0,0,1,850.7905603735414,685) translate(9.91569010416666 17.061762152777778)"/><path d="M619.53 768c0-4.42 3.58-8 8-8h154.43c4.42 0 8 3.58 8 8v61.4c0 4.4-3.58 8-8 8H627.53c-4.42 0-8-3.6-8-8z" stroke="#000" stroke-opacity="0" fill="#377eb8" fill-opacity=".54"/><use xlink:href="#y" transform="matrix(1,0,0,1,624.5253245918036,765) translate(43.8447265625 21.022265625)"/><use xlink:href="#z" transform="matrix(1,0,0,1,624.5253245918036,765) translate(33.3125 44.0203125)"/><use xlink:href="#A" transform="matrix(1,0,0,1,624.5253245918036,765) translate(29.123046875000004 67.018359375)"/><use xlink:href="#B" transform="matrix(1,0,0,1,624.5253245918036,765) translate(84.11328125 67.018359375)"/><path d="M888.4 707.74V720h-53.26v32.98" stroke="#666" fill="none"/><path d="M888.9 707.75h-1v-.5h1z" fill="#666"/><path d="M835.14 767.75l-4.64-14.27h9.27z" stroke="#666" fill="#666"/><path d="M888.4 707.74V720h57.06v32.98" stroke="#666" fill="none"/><path d="M888.9 707.75h-1v-.5h1z" fill="#666"/><path d="M945.46 767.75l-4.64-14.27h9.27z" stroke="#666" fill="#666"/><path d="M888.4 707.74V720H704.74v23.62" stroke="#666" fill="none"/><path d="M888.9 707.75h-1v-.5h1z" fill="#666"/><path d="M704.74 758.38l-4.63-14.26h9.28z" stroke="#666" fill="#666"/><path d="M704.74 837.9v39.5h130.4v-65.85" stroke="#666" fill="none"/><path d="M705.24 837.9h-1v-.5h1z" fill="#666"/><path d="M835.14 796.78l4.63 14.27h-9.27z" stroke="#666" fill="#666"/><path d="M704.74 853.78v23.6H888.4v-32.97" stroke="#666" fill="none"/><path d="M704.74 839l4.64 14.28h-9.27zM888.4 829.64l4.63 14.27h-9.27z" stroke="#666" fill="#666"/><path d="M751.67 906.57c0-4.42 3.58-8 8-8h242.2c4.42 0 8 3.58 8 8V932c0 4.42-3.58 8-8 8h-242.2c-4.42 0-8-3.58-8-8z" stroke="#000" stroke-opacity="0" fill="#fff" fill-opacity="0"/><use xlink:href="#o" transform="matrix(1,0,0,1,756.6672811563249,903.5713256505989) translate(57.46875 26.963020833333335)"/><use xlink:href="#C" transform="matrix(1,0,0,1,756.6672811563249,903.5713256505989) translate(173.74479166666669 26.963020833333335)"/><path d="M471.2 356.54l.3 2.35.5 2.7.58 2.62.67 2.52.77 2.44.86 2.4.95 2.33 1.06 2.3 1.15 2.3 1.28 2.28 1.42 2.28 1.56 2.3 1.75 2.34 1.94 2.4 2.18 2.5 2.5 2.6 2.9 2.76 3.4 3.02 4.23 3.4 5.6 4.15 9.18 6.22 27.6 17.92 5.34 3.96 4 3.24 3.22 2.84 2.7 2.6 2.3 2.4 2.02 2.3 1.78 2.2 1.6 2.13 1.4 2.1 1.3 2.05 1.14 2.05 1.04 2.04.94 2.06.85 2.07.77 2.1.67 2.16.15.55" stroke="#0c7cba" fill="none"/><path d="M471.7 356.5l-1 .12-.1-.6.35.04.46-.05.2-.07z" fill="#0c7cba"/><path d="M576.7 486.1l-6.45-13.54 9.2-1.2z" stroke="#0c7cba" fill="#0c7cba"/><path d="M438.8 426.15l1.6 1.34 2.1 1.6 2.22 1.55 2.36 1.5 2.53 1.5 2.73 1.42 2.95 1.4 3.22 1.38 3.57 1.35 4 1.32 4.57 1.3 5.34 1.27 6.52 1.26 8.68 1.3 17.14 1.82 24.8 2.43 6.72 1.02 4.72.92 3.65.87 2.98.85 2.5.83 2.17.8 1.9.82 1.66.8 1.52.8 1.35.78 1.24.8 1.15.8 1.05.8.97.8.9.83.85.85.8.85.74.87.7.9.67.93.63.95.6 1 .56 1.03.53 1.1.36.8" stroke="#0c7cba" fill="none"/><path d="M439.14 425.77l-.64.77-.5-.4.4-.26.26-.5z" fill="#0c7cba"/><path d="M576.63 486.1l-7.1-13.2 9.1-1.66z" stroke="#0c7cba" fill="#0c7cba"/><path d="M464.66 388.56l.23 1.67.36 2.05.45 1.94.52 1.85.58 1.77.64 1.7.7 1.67.8 1.62.83 1.58.93 1.55 1 1.52 1.1 1.52 1.2 1.5 1.32 1.52 1.46 1.53 1.6 1.55 1.8 1.58 2.04 1.63 2.32 1.7 2.68 1.8 3.17 1.9 3.85 2.1 4.95 2.42 7.12 3.08 38.6 15 4.7 2.3 3.64 1.97 2.96 1.78 2.5 1.66 2.12 1.57 1.86 1.5 1.65 1.44 1.46 1.42 1.33 1.38 1.18 1.37 1.1 1.35.97 1.36.9 1.36.82 1.37.74 1.4.68 1.42.34.8" stroke="#0c7cba" fill="none"/><path d="M465.15 388.5l-1 .14-.07-.6.34.05.45-.07.2-.08z" fill="#0c7cba"/><path d="M576.6 486.1l-7.22-13.13 9.1-1.74z" stroke="#0c7cba" fill="#0c7cba"/><path d="M1050.5 363.2l.62 4.55.88 4.9 1.08 4.83 1.3 4.83 1.53 4.93 1.87 5.15 2.3 5.6 3.03 6.63 5.17 10.12 12.82 24.12 2.8 6.15 2.1 5.1 1.66 4.62 1.36 4.34 1.12 4.2.93 4.14.74 4.16.05.3" stroke="#3278cc" fill="none"/><path d="M1051 363.14l-1 .13-.08-.6.34.05.46-.06.2-.08z" fill="#3278cc"/><path d="M1092.97 486.56l-5.7-13.88 9.24-.7z" stroke="#3278cc" fill="#3278cc"/><path d="M1025.08 409c0 18.36-17.54 33.24-39.17 33.24-21.62 0-39.15-14.88-39.15-33.24s17.53-33.24 39.16-33.24c21.64 0 39.18 14.88 39.18 33.24z" stroke="#ff7f00" fill="#ff7f00" fill-opacity=".4"/><path d="M935.92 397.7c0-4.4 3.6-8 8-8h83.98c4.42 0 8 3.6 8 8v26.18c0 4.42-3.58 8-8 8h-83.98c-4.4 0-8-3.58-8-8z" stroke="#000" stroke-opacity="0" fill="#fff" fill-opacity="0"/><use xlink:href="#b" transform="matrix(1,0,0,1,940.72474076327,394.51330957002125) translate(13.156249999999996 21.10451388888889)"/><use xlink:href="#D" transform="matrix(1,0,0,1,940.72474076327,394.51330957002125) translate(68.95486111111111 21.10451388888889)"/><path d="M364.16 392.52c-3.32.38-6.3-1.7-6.63-4.63-.34-2.94 2.08-5.64 5.4-6.02 3.33-.38 6.3 1.7 6.64 4.63.34 2.94-2.08 5.64-5.4 6.02z" stroke="#000" stroke-opacity=".03" stroke-width="3" fill="#984ea3"/><path d="M436.06 322.53c-3.33.4-6.3-1.68-6.64-4.62-.34-2.93 2.08-5.62 5.4-6 3.33-.4 6.3 1.68 6.64 4.62.34 2.94-2.08 5.63-5.4 6z" stroke="#000" stroke-opacity=".03" stroke-width="3" fill="#377eb8"/><path d="M464.42 386.58c-3.33.38-6.3-1.7-6.64-4.63-.34-2.94 2.08-5.63 5.4-6.02 3.33-.38 6.3 1.7 6.64 4.63.34 2.94-2.08 5.63-5.4 6.02z" stroke="#e41a1c" stroke-width="3" fill="#333"/><path d="M470.95 354.55c-3.33.4-6.3-1.68-6.63-4.62-.34-2.94 2.08-5.63 5.4-6.02 3.33-.37 6.3 1.7 6.63 4.64.34 2.94-2.08 5.63-5.4 6z" stroke="#ff7f00" stroke-width="3" fill="#333"/><path d="M321.8 325.94c2.13 2.2 2.14 5.65.02 7.73-2.13 2.07-5.6 2-7.72-.2-2.14-2.2-2.15-5.65-.02-7.72 2.12-2.08 5.58-2 7.72.2z" stroke="#000" stroke-opacity=".03" stroke-width="3" fill="#e41a1c"/><path d="M313.92 378.88c1.32-3.13 4.9-4.6 8.02-3.3 3.1 1.32 4.57 4.92 3.25 8.05-1.33 3.13-4.93 4.6-8.04 3.3-3.1-1.32-4.56-4.92-3.24-8.05z" stroke="#000" stroke-opacity=".03" stroke-width="3" fill="#377eb8"/><path d="M278.7 386.94c1.33-3.13 4.92-4.6 8.03-3.3 3.1 1.32 4.57 4.92 3.25 8.05-1.32 3.13-4.92 4.6-8.03 3.3-3.1-1.32-4.56-4.92-3.24-8.06z" stroke="#000" stroke-opacity=".03" stroke-width="3" fill="#4daf4a"/><path d="M405.57 390.5c1.32-3.14 4.9-4.6 8.02-3.3 3.1 1.3 4.55 4.9 3.23 8.04-1.32 3.13-4.9 4.6-8.02 3.3-3.1-1.3-4.55-4.92-3.23-8.05z" stroke="#000" stroke-opacity=".03" stroke-width="3" fill="#ff7f00"/><path d="M343.3 329.02c1.84-2.8 5.33-3.76 7.8-2.14 2.48 1.62 3 5.2 1.17 8s-5.33 3.76-7.8 2.14c-2.48-1.62-3-5.2-1.17-8z" stroke="#000" stroke-opacity=".03" stroke-width="3" fill="#984ea3"/><path d="M402.84 322.58c-3.05.24-5.7-1.96-5.95-4.93-.24-2.96 2.04-5.56 5.08-5.8 3.05-.25 5.7 1.96 5.95 4.92.24 2.97-2.04 5.57-5.1 5.8z" stroke="#000" stroke-opacity=".03" stroke-width="3" fill="#e41a1c"/><path d="M443.7 338.03c1.55 3.02.38 6.72-2.6 8.27-3 1.56-6.7.37-8.27-2.65-1.56-3.02-.4-6.72 2.6-8.27 3-1.56 6.7-.37 8.26 2.65z" stroke="#000" stroke-opacity=".03" stroke-width="3" fill="#984ea3"/><path d="M347.86 307.27c-2 2.3-5.45 2.6-7.7.64-2.24-1.94-2.42-5.4-.42-7.7s5.46-2.6 7.7-.64c2.24 1.95 2.43 5.4.42 7.7zM406.63 351.16c-1.1-3.1.46-6.48 3.47-7.55 3.02-1.06 6.35.6 7.45 3.7 1.1 3.1-.46 6.5-3.47 7.56-3 1.06-6.35-.6-7.45-3.7zM382.62 386.47c-.5-3.02 1.5-5.85 4.43-6.33 2.94-.47 5.7 1.6 6.2 4.6.48 3.03-1.5 5.86-4.44 6.34-2.92.47-5.7-1.6-6.18-4.6zM343.42 403.87c-3.18.85-6.43-.97-7.25-4.06-.82-3.08 1.1-6.27 4.28-7.12 3.18-.85 6.43.97 7.25 4.06.82 3.1-1.1 6.28-4.28 7.13zM377.03 418.15c-3.05.25-5.7-1.96-5.95-4.92-.23-2.97 2.05-5.57 5.1-5.8 3.04-.25 5.7 1.95 5.94 4.92.24 2.96-2.04 5.56-5.1 5.8zM323.64 424.18c-2 2.3-5.46 2.6-7.7.64s-2.43-5.4-.42-7.72c2-2.3 5.46-2.6 7.7-.63 2.24 1.95 2.43 5.4.42 7.7zM419.02 417.96c.85 3.18-.97 6.43-4.06 7.25-3.1.83-6.28-1.08-7.13-4.26-.84-3.2.98-6.43 4.07-7.26 3.1-.82 6.28 1.1 7.12 4.28zM445.8 384.7c.23 3.04-1.98 5.7-4.94 5.94-2.96.24-5.56-2.04-5.8-5.1-.25-3.04 1.96-5.7 4.92-5.94 2.96-.24 5.56 2.04 5.8 5.1z" stroke="#000" stroke-opacity=".03" stroke-width="3" fill="#e41a1c"/><path d="M436.62 417.12c2.3 2 2.6 5.46.64 7.7-1.95 2.24-5.4 2.43-7.7.42-2.32-2-2.6-5.46-.65-7.7 1.97-2.24 5.42-2.43 7.72-.42z" stroke="#377eb8" stroke-width="3" fill="#333"/><path d="M284.7 359.24c-3.2.84-6.44-.98-7.26-4.07-.82-3.1 1.1-6.28 4.27-7.12 3.2-.85 6.45.97 7.27 4.06.82 3.1-1.1 6.3-4.28 7.14zM381.5 351.04c-2 2.3-5.45 2.6-7.7.63-2.24-1.95-2.43-5.4-.42-7.7 2-2.3 5.46-2.6 7.7-.64 2.24 1.95 2.43 5.4.42 7.7z" stroke="#000" stroke-opacity=".03" stroke-width="3" fill="#e41a1c"/><path d="M376.15 335.03c-3.32.38-6.3-1.7-6.63-4.63-.34-2.94 2.08-5.63 5.4-6.02 3.33-.38 6.3 1.7 6.64 4.63.34 2.95-2.1 5.64-5.4 6.03zM472.23 305.14c-3.33.38-6.3-1.7-6.64-4.63-.35-2.93 2.07-5.62 5.4-6 3.32-.4 6.3 1.68 6.63 4.62.34 2.94-2.08 5.63-5.4 6.02z" stroke="#000" stroke-opacity=".03" stroke-width="3" fill="#377eb8"/><path d="M311.94 350.35c1.32-3.13 4.9-4.6 8.02-3.3 3.1 1.32 4.56 4.92 3.24 8.05-1.32 3.13-4.9 4.6-8.02 3.3-3.1-1.32-4.56-4.92-3.24-8.05z" stroke="#000" stroke-opacity=".03" stroke-width="3" fill="#4daf4a"/><path d="M288.23 333.5c-3.32.4-6.3-1.68-6.63-4.6-.34-2.95 2.08-5.65 5.4-6.03 3.33-.38 6.3 1.7 6.64 4.63.34 2.93-2.08 5.63-5.4 6zM448.05 418.1c-3.33.4-6.3-1.68-6.64-4.62-.33-2.94 2.1-5.63 5.42-6 3.32-.4 6.3 1.67 6.63 4.6.34 2.95-2.08 5.64-5.4 6.03z" stroke="#000" stroke-opacity=".03" stroke-width="3" fill="#377eb8"/><path d="M454.06 330.12c-1.1-3.1.46-6.5 3.47-7.55 3.02-1.07 6.35.58 7.45 3.7 1.1 3.1-.45 6.48-3.47 7.54-3 1.08-6.34-.57-7.44-3.68z" stroke="#000" stroke-opacity=".03" stroke-width="3" fill="#e41a1c"/><path d="M429.5 294.75c1.56 3.02.4 6.72-2.6 8.27-3 1.55-6.7.36-8.26-2.65-1.56-3.02-.4-6.73 2.6-8.28 3-1.56 6.7-.37 8.26 2.65z" stroke="#000" stroke-opacity=".03" stroke-width="3" fill="#984ea3"/><path d="M377.02 317.58c-3.18.85-6.43-.97-7.25-4.06-.82-3.1 1.1-6.3 4.28-7.13 3.18-.86 6.43.96 7.25 4.05.82 3.1-1.1 6.28-4.28 7.13z" stroke="#000" stroke-opacity=".03" stroke-width="3" fill="#e41a1c"/><path d="M491.2 349.1c1.32-3.13 4.9-4.6 8.02-3.3 3.1 1.3 4.56 4.92 3.24 8.05-1.32 3.13-4.9 4.6-8.02 3.3-3.1-1.32-4.56-4.92-3.24-8.05zM393.97 434.63c-3.33.4-6.3-1.7-6.63-4.62-.34-2.93 2.08-5.63 5.4-6 3.33-.4 6.3 1.68 6.64 4.62.33 2.94-2.1 5.63-5.4 6z" stroke="#000" stroke-opacity=".03" stroke-width="3" fill="#377eb8"/><path d="M846.17 375.45l14.65 1.7 11.63 2.02 9.33 2.18 7.75 2.28 6.62 2.36 5.8 2.44 5.22 2.56 4.78 2.7 4.5 2.88 4.3 3.13 4.3 3.5 4.4 4.02 4.42 4.52 22.28 27.55L971 454.9l7.4 4.92 3.4 1.74 3.4 1.56 3.48 1.4 3.6 1.28 3.82 1.18 4.2 1.1 4.86 1.02 6.22 1.05 12.37 1.48 22.1 2.5 8.42 1.42 7.2 1.54 6.74 1.74 6.6 2.02 3.13 1.12" stroke="#3278cc" fill="none"/><path d="M846.24 374.96l-.12 1-.8-.1.7-.93z" fill="#3278cc"/><path d="M1091.6 487.56l-14.97-1.1 3.5-8.6z" stroke="#3278cc" fill="#3278cc"/><path d="M889.52 431.06l.02.17.04.36.07.35.1.4.1.4.15.42.18.45.22.5.28.52.33.57.42.64.5.7.64.76.78.87 1 1 1.24 1.13 1.6 1.32 2.1 1.54 2.78 1.84 3.7 2.2 5 2.6 6.74 3.13 8.98 3.6 11.56 4 13.98 4.05 15.6 3.7 15.97 2.92 4.9.74 17.7 2.04 68.92 4.85 4.32.7 1 .22" stroke="#3278cc" fill="none"/><path d="M890 431.06l-1 .03v-.54h1z" fill="#3278cc"/><path d="M1091.74 487.27l-14.44-4.03 5.13-7.72z" stroke="#3278cc" fill="#3278cc"/><path d="M511.75 320c-2 2.3-5.45 2.6-7.7.63-2.23-1.95-2.42-5.4-.4-7.7 2-2.3 5.44-2.6 7.68-.65 2.25 1.96 2.43 5.4.42 7.7zM509.44 386.5c-2 2.3-5.45 2.6-7.7.64-2.24-1.95-2.42-5.4-.42-7.7s5.46-2.6 7.7-.65c2.24 1.95 2.43 5.4.42 7.7zM533.12 344.38c-2 2.3-5.46 2.6-7.7.63-2.24-1.94-2.43-5.4-.42-7.7 2-2.3 5.45-2.6 7.7-.63 2.24 1.95 2.42 5.4.42 7.7z" stroke="#000" stroke-opacity=".03" stroke-width="3" fill="#e41a1c"/><path d="M802.52 395.1v76.7" stroke="#666" fill="none"/><path d="M803.02 394.6v.5h-1v-.54z" fill="#666"/><path d="M802.52 486.55l-4.63-14.26h9.26z" stroke="#666" fill="#666"/><path d="M863.73 449.42v22.37" stroke="#666" fill="none"/><path d="M863.72 448.92l.5-.03v.53h-1v-.54z" fill="#666"/><path d="M863.73 486.55l-4.64-14.26h9.26z" stroke="#666" fill="#666"/><path d="M923.9 388.26v83.53" stroke="#666" fill="none"/><path d="M923.9 387.76h.5v.5h-1v-.52z" fill="#666"/><path d="M923.9 486.55l-4.64-14.26h9.27z" stroke="#666" fill="#666"/><path d="M1033.34 379v92.8" stroke="#666" fill="none"/><path d="M1033.73 378.52h.1v.5h-1v-.55z" fill="#666"/><path d="M1033.34 486.55l-4.63-14.26h9.28z" stroke="#666" fill="#666"/><path d="M988.52 443.12v28.67" stroke="#666" fill="none"/><path d="M989.02 443.14h-1v-.47l1-.1z" fill="#666"/><path d="M988.52 486.55l-4.63-14.26h9.26z" stroke="#666" fill="#666"/><path d="M863.73 449.42v22.37M863.73 449.43v-.5" stroke="#666" fill="none"/><path d="M863.73 486.55l-4.64-14.26h9.26z" stroke="#666" fill="#666"/><path d="M975.5 352.98l7.9 1.87 7.44 2.3 6.82 2.64 6.42 2.96 6.2 3.4 6.24 3.97 6.52 4.8 7.34 6.2 9.6 9.3 10.24 11 13.58 15.88 7.3 9.67 5.25 7.86 4.03 6.87 3.2 6.25 2.56 5.8 2.06 5.5 1.63 5.3 1.27 5.1.4 2.24" stroke="#3278cc" fill="none"/><path d="M975.64 352.5l-.23.96-.68-.16.3-.44.1-.5z" fill="#3278cc"/><path d="M1092.93 486.56l-5.98-13.75 9.22-.9z" stroke="#3278cc" fill="#3278cc"/><path d="M1011.25 435l5.57-.47 6.2-.14 6.2.22 6.08.6 5.86.93 5.55 1.23 5.2 1.5 4.77 1.68 4.37 1.86 3.97 1.97 3.6 2.06 3.23 2.13 2.9 2.17 2.6 2.22 2.35 2.23 2.1 2.28 1.87 2.3 1.68 2.34 1.5 2.37 1.3 2.4 1.17 2.46 1 2.52.07.22" stroke="#3278cc" fill="none"/><path d="M1011.3 435.5l-.63.06.1-.62-.17-.38.62-.05z" fill="#3278cc"/><path d="M1092.82 486.57l-6.95-13.3 9.14-1.53z" stroke="#3278cc" fill="#3278cc"/><path d="M1095.02 599.03c0-4.42 3.58-8 8-8H1152c4.42 0 8 3.58 8 8v56.08c0 4.43-3.58 8-8 8h-48.98c-4.42 0-8-3.57-8-8z" stroke="#000" stroke-opacity="0" fill="#fff" fill-opacity="0"/><use xlink:href="#E" transform="matrix(1,0,0,1,1100.0173479285866,596.0262932349692) translate(12.70182291666666 38.77552083333333)"/><path d="M1095.02 897.3c0-4.43 3.58-8 8-8H1152c4.42 0 8 3.57 8 8v44c0 4.4-3.58 8-8 8h-48.98c-4.42 0-8-3.6-8-8z" stroke="#000" stroke-opacity="0" fill="#fff" fill-opacity="0"/><use xlink:href="#F" transform="matrix(1,0,0,1,1100.0173479285866,894.2856628252995) translate(11.953124999999996 33.21302083333333)"/><path d="M808.48 583.54c0-4.42 3.58-8 8-8h58.62c4.42 0 8 3.58 8 8v9.8c0 4.42-3.58 8-8 8h-58.62c-4.42 0-8-3.58-8-8z" stroke="#000" stroke-opacity="0" fill="#377eb8" fill-opacity=".54"/><use xlink:href="#k" transform="matrix(1,0,0,1,813.4781901834259,580.5428366337162) translate(16.018880208333332 15.081510416666667)"/><use xlink:href="#G" transform="matrix(1,0,0,1,813.4781901834259,580.5428366337162) translate(42.314453125 15.081510416666667)"/><path d="M865.54 550.68c0-4.42 3.58-8 8-8h58.62c4.42 0 8 3.58 8 8v9.8c0 4.42-3.58 8-8 8h-58.62c-4.42 0-8-3.58-8-8z" stroke="#000" stroke-opacity="0" fill="#377eb8" fill-opacity=".54"/><use xlink:href="#k" transform="matrix(1,0,0,1,870.5373139664196,547.6813085885459) translate(16.018880208333332 15.081510416666667)"/><use xlink:href="#H" transform="matrix(1,0,0,1,870.5373139664196,547.6813085885459) translate(42.314453125 15.081510416666667)"/><path d="M925.78 583.54c0-4.42 3.58-8 8-8h58.62c4.42 0 8 3.58 8 8v9.8c0 4.42-3.58 8-8 8h-58.62c-4.42 0-8-3.58-8-8z" stroke="#000" stroke-opacity="0" fill="#377eb8" fill-opacity=".54"/><use xlink:href="#k" transform="matrix(1,0,0,1,930.7791595833007,580.5428366337162) translate(16.018880208333332 15.081510416666667)"/><use xlink:href="#I" transform="matrix(1,0,0,1,930.7791595833007,580.5428366337162) translate(42.314453125 15.081510416666667)"/><path d="M975.36 550.68c0-4.42 3.58-8 8-8H1042c4.4 0 8 3.58 8 8v9.8c0 4.42-3.6 8-8 8h-58.64c-4.42 0-8-3.58-8-8z" stroke="#000" stroke-opacity="0" fill="#377eb8" fill-opacity=".54"/><use xlink:href="#k" transform="matrix(1,0,0,1,980.3630040163773,547.6813085885459) translate(16.018880208333332 15.081510416666667)"/><use xlink:href="#J" transform="matrix(1,0,0,1,980.3630040163773,547.6813085885459) translate(42.314453125 15.081510416666667)"/><path d="M963.1 515.47v43.7M963.1 515.48v-.5" stroke="#666" fill="none"/><path d="M963.1 573.92l-4.64-14.26h9.27z" stroke="#666" fill="#666"/><path d="M840 515.47v43.7" stroke="#666" fill="none"/><path d="M840.5 515.48h-1v-.5h1z" fill="#666"/><path d="M840 573.92l-4.64-14.26h9.28z" stroke="#666" fill="#666"/><path d="M840 515.47v43.7M840 515.48v-.5" stroke="#666" fill="none"/><path d="M840 573.92l-4.64-14.26h9.28z" stroke="#666" fill="#666"/><path d="M902.85 515.47v10.83" stroke="#666" fill="none"/><path d="M903.35 515.48h-1v-.5h1z" fill="#666"/><path d="M902.85 541.06l-4.64-14.26h9.28z" stroke="#666" fill="#666"/><path d="M902.85 515.47v10.83M902.85 515.48v-.5" stroke="#666" fill="none"/><path d="M902.85 541.06l-4.64-14.26h9.28z" stroke="#666" fill="#666"/><path d="M792.53 515.47v10.83" stroke="#666" fill="none"/><path d="M793.03 515.48h-1v-.5h1z" fill="#666"/><path d="M792.53 541.06l-4.64-14.26h9.27z" stroke="#666" fill="#666"/><path d="M792.53 515.47v10.83M792.53 515.48v-.5" stroke="#666" fill="none"/><path d="M792.53 541.06l-4.64-14.26h9.27z" stroke="#666" fill="#666"/><path d="M1012.68 515.47v10.83" stroke="#666" fill="none"/><path d="M1013.18 515.48h-1v-.5h1z" fill="#666"/><path d="M1012.68 541.06l-4.64-14.26h9.27z" stroke="#666" fill="#666"/><path d="M797.83 777.37c0-4.42 3.58-8 8-8h58.62c4.42 0 8 3.58 8 8v9.8c0 4.4-3.58 8-8 8h-58.62c-4.42 0-8-3.6-8-8z" stroke="#000" stroke-opacity="0" fill="#377eb8" fill-opacity=".54"/><use xlink:href="#k" transform="matrix(1,0,0,1,802.8260869565217,774.3670536379716) translate(16.018880208333332 15.081510416666667)"/><use xlink:href="#l" transform="matrix(1,0,0,1,802.8260869565217,774.3670536379716) translate(42.314453125 15.081510416666667)"/><path d="M851.1 810.23c0-4.42 3.57-8 8-8h58.6c4.43 0 8 3.58 8 8v9.8c0 4.4-3.57 8-8 8h-58.6c-4.43 0-8-3.6-8-8z" stroke="#000" stroke-opacity="0" fill="#377eb8" fill-opacity=".54"/><use xlink:href="#k" transform="matrix(1,0,0,1,856.0868858355997,807.2285816831419) translate(16.018880208333332 15.081510416666667)"/><use xlink:href="#H" transform="matrix(1,0,0,1,856.0868858355997,807.2285816831419) translate(42.314453125 15.081510416666667)"/><path d="M908.15 777.37c0-4.42 3.58-8 8-8h58.62c4.42 0 8 3.58 8 8v9.8c0 4.4-3.58 8-8 8h-58.62c-4.42 0-8-3.6-8-8z" stroke="#000" stroke-opacity="0" fill="#377eb8" fill-opacity=".54"/><g><use xlink:href="#k" transform="matrix(1,0,0,1,913.1460096185933,774.3670536379716) translate(16.018880208333332 15.081510416666667)"/><use xlink:href="#J" transform="matrix(1,0,0,1,913.1460096185933,774.3670536379716) translate(42.314453125 15.081510416666667)"/></g><path d="M968.4 810.23c0-4.42 3.57-8 8-8h58.6c4.43 0 8 3.58 8 8v9.8c0 4.4-3.57 8-8 8h-58.6c-4.43 0-8-3.6-8-8z" stroke="#000" stroke-opacity="0" fill="#377eb8" fill-opacity=".54"/><g><use xlink:href="#k" transform="matrix(1,0,0,1,973.3878552354745,807.2285816831419) translate(16.018880208333332 15.081510416666667)"/><use xlink:href="#G" transform="matrix(1,0,0,1,973.3878552354745,807.2285816831419) translate(42.314453125 15.081510416666667)"/></g><path d="M1017.97 777.37c0-4.42 3.58-8 8-8h58.63c4.4 0 8 3.58 8 8v9.8c0 4.4-3.6 8-8 8h-58.63c-4.42 0-8-3.6-8-8z" stroke="#000" stroke-opacity="0" fill="#377eb8" fill-opacity=".54"/><g><use xlink:href="#k" transform="matrix(1,0,0,1,1022.9716996685511,774.3670536379716) translate(16.018880208333332 15.081510416666667)"/><use xlink:href="#I" transform="matrix(1,0,0,1,1022.9716996685511,774.3670536379716) translate(42.314453125 15.081510416666667)"/></g><path d="M704.74 837.9v39.5h300.96v-33" stroke="#666" fill="none"/><path d="M705.24 837.9h-1v-.5h1z" fill="#666"/><path d="M1005.7 829.64l4.64 14.27h-9.28z" stroke="#666" fill="#666"/><path d="M888.4 707.74V720h166.88v32.98" stroke="#666" fill="none"/><path d="M888.9 707.75h-1v-.5h1z" fill="#666"/><path d="M1055.28 767.75l-4.63-14.27h9.27z" stroke="#666" fill="#666"/><path d="M888.4 707.74v78.1" stroke="#666" fill="none"/><path d="M888.9 707.75h-1v-.5h1z" fill="#666"/><path d="M888.4 800.6l-4.64-14.26h9.27z" stroke="#666" fill="#666"/><path d="M888.4 707.74V720h117.3v65.84" stroke="#666" fill="none"/><path d="M888.9 707.75h-1v-.5h1z" fill="#666"/><path d="M1005.7 800.6l-4.64-14.26h9.28z" stroke="#666" fill="#666"/><path d="M704.74 837.9v39.5h240.72v-65.85" stroke="#666" fill="none"/><path d="M705.24 837.9h-1v-.5h1z" fill="#666"/><path d="M945.46 796.78l4.63 14.27h-9.28z" stroke="#666" fill="#666"/><path d="M704.74 837.9v39.5h350.54v-65.85" stroke="#666" fill="none"/><path d="M705.24 837.9h-1v-.5h1z" fill="#666"/><path d="M1055.28 796.78l4.64 14.27h-9.27z" stroke="#666" fill="#666"/><defs><path fill="#333" d="M1114-1293c52-3 72-46 84-94h35l31 461h-31c-41-138-100-237-177-298s-169-91-276-91c-348 13-476 285-478 660 0 356 165 588 507 598 88 0 166-19 233-57s141-112 222-224l31 20C1173-107 1030 31 734 31c-225 0-396-85-522-250-163-213-180-561-47-811 106-200 316-353 599-357 98 0 195 24 290 72 28 15 48 22 60 22" id="K"/><path fill="#333" d="M78-36c124 1 135-44 135-171v-832c0-103-2-167-7-191-7-68-68-72-128-45l-17-35 273-112h45v1215c0 136 18 170 148 171V0H78v-36" id="L"/><path fill="#333" d="M702-744c-3-113-31-129-147-135v-37h312c3 231-10 541 7 750 6 69 73 76 133 46l14 35L747 28h-45v-194C623-81 563-27 522-5c-83 45-194 47-264-11-84-69-101-153-101-313v-409c0-117-36-142-155-141v-37h321v613c-2 144 39 208 152 208 106 0 149-55 227-130v-519" id="M"/><path fill="#333" d="M577-905c31 0 31-12 46-38h33v312h-33c-25-98-57-165-97-200s-91-53-152-53c-80-4-156 51-156 119 0 112 57 134 158 183l146 71c135 66 203 153 203 261C725-90 571 28 419 28c-67 0-169-27-246-40-15 0-27 9-36 26h-33v-327h33C164-156 262-39 421-31c84 3 157-59 156-138 0-46-17-85-49-116s-96-71-193-119-160-91-190-130c-30-38-45-86-45-144-2-151 122-265 278-265 45 0 153 38 199 38" id="N"/><path fill="#333" d="M341 15c-129 0-176-89-176-245v-616H20v-33c86-36 165-117 215-199 15-25 37-72 64-139h31v301h214v70H330v594c0 97 17 151 91 151 54 0 95-36 112-81h39C536-75 459 15 341 15" id="O"/><path fill="#333" d="M76-446c0-285 162-495 423-498 208-2 358 157 352 373H218c-11 236 130 436 334 436 154 0 216-85 268-219l31 20C827-163 678 33 476 28 240 22 76-185 76-446zm142-183h424c-5-121-28-166-96-212-84-58-184-36-252 33-44 43-69 102-76 179" id="P"/><path fill="#333" d="M23-36c118-6 149-31 144-170-5-152 5-423-7-546-8-64-78-69-137-43l-10-36 277-112h42v206c77-137 155-206 236-206 66-3 127 50 127 111 2 49-40 94-88 93-38 10-113-72-143-69-12 0-25 7-39 20-30 27-61 72-93 135v439C330-89 369-37 492-36V0H23v-36" id="Q"/><path fill="#333" d="M195-1321c-2-55 47-103 102-101 54-2 103 47 101 101 2 54-47 104-101 102-54 2-104-48-102-102zM74-36c127 1 140-42 140-171 0-159 7-416-9-546-7-66-72-67-131-42l-14-36 276-112h44v736c1 131 14 170 139 171V0H74v-36" id="R"/><path fill="#333" d="M27-36c123 2 139-43 139-171 0-148 4-426-8-541-7-69-71-73-131-47l-15-36 276-112h43v194c107-129 210-194 307-194 181 0 237 135 237 345v391c1 131 14 171 140 171V0H562v-36c127-1 148-31 148-171v-375c-3-142-18-238-142-238-79 0-158 43-237 130v483c1 105 2 123 49 157 16 9 50 14 100 14V0H27v-36" id="S"/><path fill="#333" d="M244-8c-53-36-87-48-95-111 0-23 10-51 29-82s62-76 131-133c-99-46-172-143-174-277-2-186 168-340 365-332 87 0 163 21 227 64h194c58 0 66-3 66 43 0 50-8 47-66 47H802c37 48 56 109 56 184 1 229-252 368-500 290-43 39-67 62-75 115 7 37 32 49 81 56 73 8 384 11 407 21 112 13 203 88 204 207 0 75-35 146-106 212-104 97-240 146-407 146-129 0-236-30-326-87-121-76-72-167 6-255 5-6 39-42 102-108zm265-336c119-5 177-95 174-236 0-106-23-189-69-249-34-44-78-66-131-66-117 6-178 101-174 240 0 105 23 187 68 245 35 44 79 66 132 66zM299 0c-63 66-150 185-37 260 111 73 450 84 554-2 55-45 86-87 86-135 0-35-17-59-51-74C750 11 392 24 299 0" id="T"/><g id="a"><use transform="matrix(0.01193576388888889,0,0,0.01193576388888889,0,0)" xlink:href="#K"/><use transform="matrix(0.01193576388888889,0,0,0.01193576388888889,16.304253472222225,0)" xlink:href="#L"/><use transform="matrix(0.01193576388888889,0,0,0.01193576388888889,23.095703125000004,0)" xlink:href="#M"/><use transform="matrix(0.01193576388888889,0,0,0.01193576388888889,35.31792534722223,0)" xlink:href="#N"/><use transform="matrix(0.01193576388888889,0,0,0.01193576388888889,44.83072916666667,0)" xlink:href="#O"/><use transform="matrix(0.01193576388888889,0,0,0.01193576388888889,51.62217881944445,0)" xlink:href="#P"/><use transform="matrix(0.01193576388888889,0,0,0.01193576388888889,62.47178819444445,0)" xlink:href="#Q"/><use transform="matrix(0.01193576388888889,0,0,0.01193576388888889,70.61197916666667,0)" xlink:href="#R"/><use transform="matrix(0.01193576388888889,0,0,0.01193576388888889,77.40342881944446,0)" xlink:href="#S"/><use transform="matrix(0.01193576388888889,0,0,0.01193576388888889,89.62565104166669,0)" xlink:href="#T"/></g><path fill="#666" d="M1114-1293c52-3 72-46 84-94h35l31 461h-31c-41-138-100-237-177-298s-169-91-276-91c-348 13-476 285-478 660 0 356 165 588 507 598 88 0 166-19 233-57s141-112 222-224l31 20C1173-107 1030 31 734 31c-225 0-396-85-522-250-163-213-180-561-47-811 106-200 316-353 599-357 98 0 195 24 290 72 28 15 48 22 60 22" id="U"/><path fill="#666" d="M78-36c124 1 135-44 135-171v-832c0-103-2-167-7-191-7-68-68-72-128-45l-17-35 273-112h45v1215c0 136 18 170 148 171V0H78v-36" id="V"/><path fill="#666" d="M702-744c-3-113-31-129-147-135v-37h312c3 231-10 541 7 750 6 69 73 76 133 46l14 35L747 28h-45v-194C623-81 563-27 522-5c-83 45-194 47-264-11-84-69-101-153-101-313v-409c0-117-36-142-155-141v-37h321v613c-2 144 39 208 152 208 106 0 149-55 227-130v-519" id="W"/><path fill="#666" d="M577-905c31 0 31-12 46-38h33v312h-33c-25-98-57-165-97-200s-91-53-152-53c-80-4-156 51-156 119 0 112 57 134 158 183l146 71c135 66 203 153 203 261C725-90 571 28 419 28c-67 0-169-27-246-40-15 0-27 9-36 26h-33v-327h33C164-156 262-39 421-31c84 3 157-59 156-138 0-46-17-85-49-116s-96-71-193-119-160-91-190-130c-30-38-45-86-45-144-2-151 122-265 278-265 45 0 153 38 199 38" id="X"/><path fill="#666" d="M341 15c-129 0-176-89-176-245v-616H20v-33c86-36 165-117 215-199 15-25 37-72 64-139h31v301h214v70H330v594c0 97 17 151 91 151 54 0 95-36 112-81h39C536-75 459 15 341 15" id="Y"/><path fill="#666" d="M76-446c0-285 162-495 423-498 208-2 358 157 352 373H218c-11 236 130 436 334 436 154 0 216-85 268-219l31 20C827-163 678 33 476 28 240 22 76-185 76-446zm142-183h424c-5-121-28-166-96-212-84-58-184-36-252 33-44 43-69 102-76 179" id="Z"/><path fill="#666" d="M23-36c118-6 149-31 144-170-5-152 5-423-7-546-8-64-78-69-137-43l-10-36 277-112h42v206c77-137 155-206 236-206 66-3 127 50 127 111 2 49-40 94-88 93-38 10-113-72-143-69-12 0-25 7-39 20-30 27-61 72-93 135v439C330-89 369-37 492-36V0H23v-36" id="aa"/><g id="b"><use transform="matrix(0.008680555555555556,0,0,0.008680555555555556,0,0)" xlink:href="#U"/><use transform="matrix(0.008680555555555556,0,0,0.008680555555555556,11.85763888888889,0)" xlink:href="#V"/><use transform="matrix(0.008680555555555556,0,0,0.008680555555555556,16.796875,0)" xlink:href="#W"/><use transform="matrix(0.008680555555555556,0,0,0.008680555555555556,25.68576388888889,0)" xlink:href="#X"/><use transform="matrix(0.008680555555555556,0,0,0.008680555555555556,32.604166666666664,0)" xlink:href="#Y"/><use transform="matrix(0.008680555555555556,0,0,0.008680555555555556,37.54340277777778,0)" xlink:href="#Z"/><use transform="matrix(0.008680555555555556,0,0,0.008680555555555556,45.43402777777778,0)" xlink:href="#aa"/></g><path fill="#666" d="M953-500v142H771V0H606v-358H32v-128l629-898h110v884h182zm-347 0v-673L130-500h476" id="ab"/><use transform="matrix(0.008680555555555556,0,0,0.008680555555555556,0,0)" xlink:href="#ab" id="c"/><path fill="#666" d="M611-151c167 4 231-15 291-110h37L844 0H44v-37c235-215 401-390 497-526s144-260 144-373c0-159-118-297-268-295-155 4-256 99-297 230H83c26-221 158-376 387-383 204-6 390 162 386 356 0 69-16 137-48 206-49 108-129 222-240 343-166 181-270 291-311 328h354" id="ac"/><use transform="matrix(0.008680555555555556,0,0,0.008680555555555556,0,0)" xlink:href="#ac" id="d"/><path fill="#1d1c1d" d="M160-131c35 5 61 23 61 61C221 17 115-2 30 0v-248c76 3 177-17 177 60 0 33-19 50-47 57zm-97-11c50-1 110 9 110-42 0-47-63-36-110-37v79zm0 115c55-2 124 14 124-45 0-56-70-42-124-44v89" id="ad"/><path fill="#1d1c1d" d="M141-36C126-15 110 5 73 4 37 3 15-17 15-53c-1-64 63-63 125-63 3-35-9-54-41-54-24 1-41 7-42 31l-33-3c5-37 33-52 76-52 45 0 72 20 72 64v82c-1 20 7 32 28 27v20c-31 9-61-2-59-35zM48-53c0 20 12 33 32 33 41-3 63-29 60-74-43 2-92-5-92 41" id="ae"/><path fill="#1d1c1d" d="M135-143c-3-34-86-38-87 0 15 53 115 12 119 90S17 21 10-45l28-5c4 36 97 45 98 0-10-56-113-15-118-90-4-57 82-63 122-42 12 7 21 19 24 35" id="af"/><path fill="#1d1c1d" d="M100-194c63 0 86 42 84 106H49c0 40 14 67 53 68 26 1 43-12 49-29l28 8c-11 28-37 45-77 45C44 4 14-33 15-96c1-61 26-98 85-98zm52 81c6-60-76-77-97-28-3 7-6 17-6 28h103" id="ag"/><path fill="#1d1c1d" d="M24 0v-261h32V0H24" id="ah"/><path fill="#1d1c1d" d="M24-231v-30h32v30H24zM24 0v-190h32V0H24" id="ai"/><path fill="#1d1c1d" d="M117-194c89-4 53 116 60 194h-32v-121c0-31-8-49-39-48C34-167 62-67 57 0H25l-1-190h30c1 10-1 24 2 32 11-22 29-35 61-36" id="aj"/><g id="e"><use transform="matrix(0.05555555555555555,0,0,0.05555555555555555,0,0)" xlink:href="#ad"/><use transform="matrix(0.05555555555555555,0,0,0.05555555555555555,13.333333333333332,0)" xlink:href="#ae"/><use transform="matrix(0.05555555555555555,0,0,0.05555555555555555,24.444444444444443,0)" xlink:href="#af"/><use transform="matrix(0.05555555555555555,0,0,0.05555555555555555,34.44444444444444,0)" xlink:href="#ag"/><use transform="matrix(0.05555555555555555,0,0,0.05555555555555555,45.55555555555556,0)" xlink:href="#ah"/><use transform="matrix(0.05555555555555555,0,0,0.05555555555555555,49.94444444444444,0)" xlink:href="#ai"/><use transform="matrix(0.05555555555555555,0,0,0.05555555555555555,54.33333333333333,0)" xlink:href="#aj"/><use transform="matrix(0.05555555555555555,0,0,0.05555555555555555,65.44444444444444,0)" xlink:href="#ag"/></g><path fill="#1d1c1d" d="M179-190L93 31C79 59 56 82 12 73V49c39 6 53-20 64-50L1-190h34L92-34l54-156h33" id="ak"/><g id="f"><use transform="matrix(0.05555555555555555,0,0,0.05555555555555555,0,0)" xlink:href="#ad"/><use transform="matrix(0.05555555555555555,0,0,0.05555555555555555,13.333333333333332,0)" xlink:href="#ae"/><use transform="matrix(0.05555555555555555,0,0,0.05555555555555555,24.444444444444443,0)" xlink:href="#ak"/><use transform="matrix(0.05555555555555555,0,0,0.05555555555555555,34.44444444444444,0)" xlink:href="#ag"/><use transform="matrix(0.05555555555555555,0,0,0.05555555555555555,45.55555555555556,0)" xlink:href="#af"/><use transform="matrix(0.05555555555555555,0,0,0.05555555555555555,55.55555555555556,0)" xlink:href="#ai"/><use transform="matrix(0.05555555555555555,0,0,0.05555555555555555,59.94444444444444,0)" xlink:href="#ae"/><use transform="matrix(0.05555555555555555,0,0,0.05555555555555555,71.05555555555556,0)" xlink:href="#aj"/></g><path fill="#1d1c1d" d="M197 0v-115H63V0H30v-248h33v105h134v-105h34V0h-34" id="al"/><path fill="#1d1c1d" d="M114-163C36-179 61-72 57 0H25l-1-190h30c1 12-1 29 2 39 6-27 23-49 58-41v29" id="am"/><path fill="#1d1c1d" d="M96-169c-40 0-48 33-48 73s9 75 48 75c24 0 41-14 43-38l32 2c-6 37-31 61-74 61-59 0-76-41-82-99-10-93 101-131 147-64 4 7 5 14 7 22l-32 3c-4-21-16-35-41-35" id="an"/><path fill="#1d1c1d" d="M106-169C34-169 62-67 57 0H25v-261h32l-1 103c12-21 28-36 61-36 89 0 53 116 60 194h-32v-121c2-32-8-49-39-48" id="ao"/><g id="g"><use transform="matrix(0.05555555555555555,0,0,0.05555555555555555,0,0)" xlink:href="#al"/><use transform="matrix(0.05555555555555555,0,0,0.05555555555555555,14.388888888888888,0)" xlink:href="#ai"/><use transform="matrix(0.05555555555555555,0,0,0.05555555555555555,18.777777777777775,0)" xlink:href="#ag"/><use transform="matrix(0.05555555555555555,0,0,0.05555555555555555,29.888888888888886,0)" xlink:href="#am"/><use transform="matrix(0.05555555555555555,0,0,0.05555555555555555,36.5,0)" xlink:href="#ae"/><use transform="matrix(0.05555555555555555,0,0,0.05555555555555555,47.611111111111114,0)" xlink:href="#am"/><use transform="matrix(0.05555555555555555,0,0,0.05555555555555555,54.22222222222223,0)" xlink:href="#an"/><use transform="matrix(0.05555555555555555,0,0,0.05555555555555555,64.22222222222223,0)" xlink:href="#ao"/><use transform="matrix(0.05555555555555555,0,0,0.05555555555555555,75.33333333333334,0)" xlink:href="#ai"/><use transform="matrix(0.05555555555555555,0,0,0.05555555555555555,79.72222222222223,0)" xlink:href="#an"/><use transform="matrix(0.05555555555555555,0,0,0.05555555555555555,89.72222222222223,0)" xlink:href="#ae"/><use transform="matrix(0.05555555555555555,0,0,0.05555555555555555,100.83333333333334,0)" xlink:href="#ah"/></g><path fill="#1d1c1d" d="M240 0l2-218c-23 76-54 145-80 218h-23L58-218 59 0H30v-248h44l77 211c21-75 51-140 76-211h43V0h-30" id="ap"/><path fill="#1d1c1d" d="M100-194c62-1 85 37 85 99 1 63-27 99-86 99S16-35 15-95c0-66 28-99 85-99zM99-20c44 1 53-31 53-75 0-43-8-75-51-75s-53 32-53 75 10 74 51 75" id="aq"/><path fill="#1d1c1d" d="M85-194c31 0 48 13 60 33l-1-100h32l1 261h-30c-2-10 0-23-3-31C134-8 116 4 85 4 32 4 16-35 15-94c0-66 23-100 70-100zm9 24c-40 0-46 34-46 75 0 40 6 74 45 74 42 0 51-32 51-76 0-42-9-74-50-73" id="ar"/><g id="h"><use transform="matrix(0.05555555555555555,0,0,0.05555555555555555,0,0)" xlink:href="#ap"/><use transform="matrix(0.05555555555555555,0,0,0.05555555555555555,16.61111111111111,0)" xlink:href="#aq"/><use transform="matrix(0.05555555555555555,0,0,0.05555555555555555,27.72222222222222,0)" xlink:href="#ar"/><use transform="matrix(0.05555555555555555,0,0,0.05555555555555555,38.83333333333333,0)" xlink:href="#ag"/><use transform="matrix(0.05555555555555555,0,0,0.05555555555555555,49.94444444444444,0)" xlink:href="#ah"/></g><path fill="#1d1c1d" d="M87 75C49 33 22-17 22-94c0-76 28-126 65-167h31c-38 41-64 92-64 168S80 34 118 75H87" id="as"/><path fill="#1d1c1d" d="M33 0v-248h34V0H33" id="at"/><path fill="#1d1c1d" d="M33-261c38 41 65 92 65 168S71 34 33 75H2C39 34 66-17 66-93S39-220 2-261h31" id="au"/><g id="i"><use transform="matrix(0.05555555555555555,0,0,0.05555555555555555,0,0)" xlink:href="#as"/><use transform="matrix(0.05555555555555555,0,0,0.05555555555555555,6.611111111111111,0)" xlink:href="#ad"/><use transform="matrix(0.05555555555555555,0,0,0.05555555555555555,19.944444444444443,0)" xlink:href="#al"/><use transform="matrix(0.05555555555555555,0,0,0.05555555555555555,34.33333333333333,0)" xlink:href="#at"/><use transform="matrix(0.05555555555555555,0,0,0.05555555555555555,39.888888888888886,0)" xlink:href="#au"/></g><path fill="#666" d="M501 28C254 34 61-203 69-449c9-268 170-487 443-494 249-7 449 219 441 468-9 274-167 496-452 503zm-20-906c-288 0-260 495-147 690C387-91 457-43 544-43c65 0 118-27 160-80s63-145 63-275c0-163-35-291-105-384-47-64-108-96-181-96" id="av"/><path fill="#666" d="M27-36c123 2 139-43 139-171 0-148 4-426-8-541-7-69-71-73-131-47l-15-36 276-112h43v194c107-129 210-194 307-194 181 0 237 135 237 345v391c1 131 14 171 140 171V0H562v-36c127-1 148-31 148-171v-375c-3-142-18-238-142-238-79 0-158 43-237 130v483c1 105 2 123 49 157 16 9 50 14 100 14V0H27v-36" id="aw"/><path fill="#666" d="M195-1321c-2-55 47-103 102-101 54-2 103 47 101 101 2 54-47 104-101 102-54 2-104-48-102-102zM74-36c127 1 140-42 140-171 0-159 7-416-9-546-7-66-72-67-131-42l-14-36 276-112h44v736c1 131 14 170 139 171V0H74v-36" id="ax"/><g id="j"><use transform="matrix(0.013020833333333334,0,0,0.013020833333333334,0,0)" xlink:href="#U"/><use transform="matrix(0.013020833333333334,0,0,0.013020833333333334,17.786458333333336,0)" xlink:href="#av"/><use transform="matrix(0.013020833333333334,0,0,0.013020833333333334,31.119791666666675,0)" xlink:href="#W"/><use transform="matrix(0.013020833333333334,0,0,0.013020833333333334,44.45312500000001,0)" xlink:href="#aw"/><use transform="matrix(0.013020833333333334,0,0,0.013020833333333334,57.78645833333335,0)" xlink:href="#Y"/><use transform="matrix(0.013020833333333334,0,0,0.013020833333333334,65.19531250000001,0)" xlink:href="#ax"/><use transform="matrix(0.013020833333333334,0,0,0.013020833333333334,72.60416666666669,0)" xlink:href="#Z"/><use transform="matrix(0.013020833333333334,0,0,0.013020833333333334,84.44010416666669,0)" xlink:href="#X"/></g><path d="M1191-994c-5 160-106 260-245 302 182 32 308 140 308 321 0 155-112 286-240 329C940-14 827 0 674 0H34v-37c152 3 196-33 196-203v-876c6-176-42-205-196-203v-37h586c234-2 388 39 492 152 53 61 79 131 79 210zm-209-8c0-183-166-295-380-287-67 0-127 7-180 22v521c113 21 327 18 408-18 87-38 152-124 152-238zM599-663c-68 0-126 1-177 9v556c77 18 154 27 229 27 211 6 371-100 371-283 0-219-183-309-423-309" id="ay"/><path d="M35-37c154 0 194-26 194-203v-875c-5-113 4-142-54-180-43-24-81-25-140-24v-37h581v37c-83-5-159 10-183 71-8 22-12 66-12 133v388h630v-388c-5-114 5-143-55-180-42-24-81-25-139-24v-37h580v37c-82-5-160 11-183 71-8 22-11 66-11 133v875c5 112-4 141 54 179 43 24 81 25 140 24V0H857v-37c153 1 194-28 194-203v-413H421v413c5 113-5 142 55 179 42 24 81 25 140 24V0H35v-37" id="az"/><path d="M632-1319c-154-1-195 27-195 203v876c5 113-5 142 55 179 42 24 81 25 140 24V0H51v-37c154 0 194-26 194-203v-876c-5-112 4-141-54-179-43-24-81-25-140-24v-37h581v37" id="aA"/><g id="k"><use transform="matrix(0.006510416666666667,0,0,0.006510416666666667,0,0)" xlink:href="#ay"/><use transform="matrix(0.006510416666666667,0,0,0.006510416666666667,8.893229166666668,0)" xlink:href="#az"/><use transform="matrix(0.006510416666666667,0,0,0.006510416666666667,18.522135416666668,0)" xlink:href="#aA"/></g><path d="M264-37c167-9 174-17 174-202v-732c0-99-3-162-10-190-21-82-97-71-173-31l-15-31 330-161h33v1145c-4 178 9 196 171 202V0H264v-37" id="aB"/><use transform="matrix(0.006510416666666667,0,0,0.006510416666666667,0,0)" xlink:href="#aB" id="l"/><path fill="#333" d="M1020-1058c-45-158-99-224-302-224H419v533h247c133-5 158-52 177-186h37v459h-37c-2-135-44-189-177-190H419v426c5 113-5 142 55 179 43 24 82 25 141 24V0H33v-37c154 0 194-26 194-203v-876c-5-112 4-141-54-179-42-24-81-25-140-24v-37h1009l13 298h-35" id="aC"/><g id="m"><use transform="matrix(0.013020833333333334,0,0,0.013020833333333334,0,0)" xlink:href="#aC"/><use transform="matrix(0.013020833333333334,0,0,0.013020833333333334,14.830729166666668,0)" xlink:href="#R"/><use transform="matrix(0.013020833333333334,0,0,0.013020833333333334,22.239583333333336,0)" xlink:href="#O"/><use transform="matrix(0.013020833333333334,0,0,0.013020833333333334,29.6484375,0)" xlink:href="#O"/><use transform="matrix(0.013020833333333334,0,0,0.013020833333333334,37.05729166666667,0)" xlink:href="#R"/><use transform="matrix(0.013020833333333334,0,0,0.013020833333333334,44.466145833333336,0)" xlink:href="#S"/><use transform="matrix(0.013020833333333334,0,0,0.013020833333333334,57.79947916666667,0)" xlink:href="#T"/></g><path fill="#333" d="M32-36c124 0 139-41 139-171 0-158 7-417-9-545-7-66-72-68-130-43l-15-36 276-112h43v195c119-114 101-124 215-174 156-69 313 28 334 174 69-80 127-133 174-158 86-47 198-56 275 0 79 57 112 144 112 305v394c-2 131 17 168 138 171V0h-452v-36c120-3 148-29 148-171v-394c2-145-32-222-152-222-114 0-153 52-236 125 0 156 3 328 0 491-3 147 20 164 149 171V0H578v-36c129-5 149-29 149-171v-394c4-140-43-225-156-225-99 0-190 76-235 128v491c1 140 14 170 149 171V0H32v-36" id="aD"/><path fill="#333" d="M501 28C254 34 61-203 69-449c9-268 170-487 443-494 249-7 449 219 441 468-9 274-167 496-452 503zm-20-906c-288 0-260 495-147 690C387-91 457-43 544-43c65 0 118-27 160-80s63-145 63-275c0-163-35-291-105-384-47-64-108-96-181-96" id="aE"/><path fill="#333" d="M68-420c0-248 187-524 443-524 81 0 147 26 200 77-8-130 24-366-31-411-31-26-63-13-109 3l-13-35 273-112h45v1059c0 107 3 173 8 197 10 70 69 75 134 46l11 35L757 28h-46v-131C634-25 572 28 442 28 229 28 68-185 68-420zm643-225c-12-127-84-229-212-237-59 0-108 29-157 79-119 122-115 486-3 613C452-61 594-43 711-173v-472" id="aF"/><g id="n"><use transform="matrix(0.013020833333333334,0,0,0.013020833333333334,0,0)" xlink:href="#aD"/><use transform="matrix(0.013020833333333334,0,0,0.013020833333333334,20.7421875,0)" xlink:href="#aE"/><use transform="matrix(0.013020833333333334,0,0,0.013020833333333334,34.075520833333336,0)" xlink:href="#aF"/><use transform="matrix(0.013020833333333334,0,0,0.013020833333333334,47.40885416666667,0)" xlink:href="#P"/><use transform="matrix(0.013020833333333334,0,0,0.013020833333333334,59.24479166666667,0)" xlink:href="#L"/></g><path fill="#333" d="M1180-1223c-8-64-68-86-144-96v-37h418v37c-126 24-157 83-203 196L778 31h-37L233-1138c-47-103-45-116-117-158-24-12-57-20-98-23v-37h554v37c-97 13-150 16-150 91 0 33 15 85 46 156l345 795 320-785c31-77 47-131 47-161" id="aG"/><path fill="#333" d="M691 18c-80-4-108-56-108-150C489-59 430-17 406-6 241 73 62-39 73-217c8-136 70-179 173-244 66-42 180-89 337-146 4-171-23-272-170-275-74-4-138 48-138 112 0 82-7 156-83 154-52 0-86-42-84-97 9-140 160-236 335-230 142 5 253 33 287 138 46 143 5 474 23 647 5 32 15 47 43 50 52-8 50-30 109-80v56C830-32 759 18 691 18zM275-369c-80 99-12 274 108 272 51 0 117-33 200-100v-349c-101 40-166 68-195 85-53 29-90 60-113 92" id="aH"/><g id="o"><use transform="matrix(0.013020833333333334,0,0,0.013020833333333334,0,0)" xlink:href="#aG"/><use transform="matrix(0.013020833333333334,0,0,0.013020833333333334,16.302083333333332,0)" xlink:href="#aH"/><use transform="matrix(0.013020833333333334,0,0,0.013020833333333334,28.138020833333336,0)" xlink:href="#L"/><use transform="matrix(0.013020833333333334,0,0,0.013020833333333334,35.546875,0)" xlink:href="#R"/><use transform="matrix(0.013020833333333334,0,0,0.013020833333333334,42.955729166666664,0)" xlink:href="#aF"/><use transform="matrix(0.013020833333333334,0,0,0.013020833333333334,56.2890625,0)" xlink:href="#aH"/><use transform="matrix(0.013020833333333334,0,0,0.013020833333333334,68.125,0)" xlink:href="#O"/><use transform="matrix(0.013020833333333334,0,0,0.013020833333333334,75.53385416666667,0)" xlink:href="#R"/><use transform="matrix(0.013020833333333334,0,0,0.013020833333333334,82.94270833333334,0)" xlink:href="#aE"/><use transform="matrix(0.013020833333333334,0,0,0.013020833333333334,96.27604166666667,0)" xlink:href="#S"/></g><path fill="#333" d="M921-37c85-5 129-19 138-83-10-99-88-242-122-334H412l-92 214c-23 53-34 92-34 118 0 70 59 76 157 85V0H16v-37c57-10 93-23 110-39 34-32 72-97 113-195l477-1116h35l472 1128c72 147 76 201 233 222V0H921v-37zm-12-491l-230-548-236 548h466" id="aI"/><use transform="matrix(0.013020833333333334,0,0,0.013020833333333334,0,0)" xlink:href="#aI" id="p"/><path fill="#666" d="M264-37c167-9 174-17 174-202v-732c0-99-3-162-10-190-21-82-97-71-173-31l-15-31 330-161h33v1145c-4 178 9 196 171 202V0H264v-37" id="aJ"/><use transform="matrix(0.008680555555555556,0,0,0.008680555555555556,0,0)" xlink:href="#aJ" id="q"/><path fill="#666" d="M621-1018c0-132-97-232-225-230-103 0-190 55-259 166l-33-16c70-158 162-278 367-286 172-6 310 118 316 275 0 99-62 201-186 306 148 57 253 167 253 354 0 290-231 482-535 473-91 0-154-11-187-34S83-57 83-83c1-58 69-88 131-65s153 85 239 85c134 0 253-130 253-266 0-88-45-196-92-239-61-55-180-115-303-105v-30c161-30 310-127 310-315" id="aK"/><use transform="matrix(0.008680555555555556,0,0,0.008680555555555556,0,0)" xlink:href="#aK" id="r"/><g id="s"><use transform="matrix(0.007595486111111112,0,0,0.007595486111111112,0,0)" xlink:href="#aC"/><use transform="matrix(0.007595486111111112,0,0,0.007595486111111112,8.651258680555557,0)" xlink:href="#R"/><use transform="matrix(0.007595486111111112,0,0,0.007595486111111112,12.973090277777779,0)" xlink:href="#O"/><use transform="matrix(0.007595486111111112,0,0,0.007595486111111112,17.294921875,0)" xlink:href="#O"/><use transform="matrix(0.007595486111111112,0,0,0.007595486111111112,21.61675347222222,0)" xlink:href="#R"/><use transform="matrix(0.007595486111111112,0,0,0.007595486111111112,25.938585069444443,0)" xlink:href="#S"/><use transform="matrix(0.007595486111111112,0,0,0.007595486111111112,33.71636284722222,0)" xlink:href="#T"/></g><path fill="#2e65a9" d="M35-37c154 0 194-26 194-203v-875c-5-113 4-142-54-180-43-24-81-25-140-24v-37h581v37c-83-5-159 10-183 71-8 22-12 66-12 133v388h630v-388c-5-114 5-143-55-180-42-24-81-25-139-24v-37h580v37c-82-5-160 11-183 71-8 22-11 66-11 133v875c5 112-4 141 54 179 43 24 81 25 140 24V0H857v-37c153 1 194-28 194-203v-413H421v413c5 113-5 142 55 179 42 24 81 25 140 24V0H35v-37" id="aL"/><path fill="#2e65a9" d="M501 28C254 34 61-203 69-449c9-268 170-487 443-494 249-7 449 219 441 468-9 274-167 496-452 503zm-20-906c-288 0-260 495-147 690C387-91 457-43 544-43c65 0 118-27 160-80s63-145 63-275c0-163-35-291-105-384-47-64-108-96-181-96" id="aM"/><path fill="#2e65a9" d="M78-36c124 1 135-44 135-171v-832c0-103-2-167-7-191-7-68-68-72-128-45l-17-35 273-112h45v1215c0 136 18 170 148 171V0H78v-36" id="aN"/><path fill="#2e65a9" d="M68-420c0-248 187-524 443-524 81 0 147 26 200 77-8-130 24-366-31-411-31-26-63-13-109 3l-13-35 273-112h45v1059c0 107 3 173 8 197 10 70 69 75 134 46l11 35L757 28h-46v-131C634-25 572 28 442 28 229 28 68-185 68-420zm643-225c-12-127-84-229-212-237-59 0-108 29-157 79-119 122-115 486-3 613C452-61 594-43 711-173v-472" id="aO"/><path fill="#2e65a9" d="M83-535h517v151H83v-151" id="aP"/><path fill="#2e65a9" d="M702-744c-3-113-31-129-147-135v-37h312c3 231-10 541 7 750 6 69 73 76 133 46l14 35L747 28h-45v-194C623-81 563-27 522-5c-83 45-194 47-264-11-84-69-101-153-101-313v-409c0-117-36-142-155-141v-37h321v613c-2 144 39 208 152 208 106 0 149-55 227-130v-519" id="aQ"/><path fill="#2e65a9" d="M341 15c-129 0-176-89-176-245v-616H20v-33c86-36 165-117 215-199 15-25 37-72 64-139h31v301h214v70H330v594c0 97 17 151 91 151 54 0 95-36 112-81h39C536-75 459 15 341 15" id="aR"/><g id="t"><use transform="matrix(0.007595486111111112,0,0,0.007595486111111112,0,0)" xlink:href="#aL"/><use transform="matrix(0.007595486111111112,0,0,0.007595486111111112,11.233723958333334,0)" xlink:href="#aM"/><use transform="matrix(0.007595486111111112,0,0,0.007595486111111112,19.011501736111114,0)" xlink:href="#aN"/><use transform="matrix(0.007595486111111112,0,0,0.007595486111111112,23.333333333333336,0)" xlink:href="#aO"/><use transform="matrix(0.007595486111111112,0,0,0.007595486111111112,31.111111111111114,0)" xlink:href="#aP"/><use transform="matrix(0.007595486111111112,0,0,0.007595486111111112,36.29123263888889,0)" xlink:href="#aM"/><use transform="matrix(0.007595486111111112,0,0,0.007595486111111112,44.06901041666667,0)" xlink:href="#aQ"/><use transform="matrix(0.007595486111111112,0,0,0.007595486111111112,51.84678819444445,0)" xlink:href="#aR"/></g><path d="M230-1116c7-178-41-204-195-203v-37c331 8 797-28 1015 69 200 89 354 317 351 602 0 189-57 346-172 473C1100-71 904 0 641 0H35v-37c80 4 144-6 173-55 15-22 22-71 22-148v-876zm943 441c0-423-321-700-751-576V-98c85 19 156 28 213 28 323 1 538-261 538-605" id="aS"/><path d="M23-36c118-6 149-31 144-170-5-152 5-423-7-546-8-64-78-69-137-43l-10-36 277-112h42v206c77-137 155-206 236-206 66-3 127 50 127 111 2 49-40 94-88 93-38 10-113-72-143-69-12 0-25 7-39 20-30 27-61 72-93 135v439C330-89 369-37 492-36V0H23v-36" id="aT"/><path d="M501 28C254 34 61-203 69-449c9-268 170-487 443-494 249-7 449 219 441 468-9 274-167 496-452 503zm-20-906c-288 0-260 495-147 690C387-91 457-43 544-43c65 0 118-27 160-80s63-145 63-275c0-163-35-291-105-384-47-64-108-96-181-96" id="aU"/><path d="M318 226c-3 148 19 171 155 175v37H-7v-37c68 2 128-7 149-57 7-16 10-57 10-124v-866c-3-93 3-115-34-149-32-18-67-14-108 2l-12-32 282-114h38v214c47-81 94-137 142-169s98-49 151-49c221 3 343 221 343 452 0 265-156 520-418 519-107-3-154-23-218-81v279zM532-798c-117 0-121 40-214 132 3 149-13 362 9 488C341-99 429-28 533-32c67 0 121-26 162-78 116-130 101-488-11-610-45-50-93-78-152-78" id="aV"/><g id="u"><use transform="matrix(0.009765625,0,0,0.009765625,0,0)" xlink:href="#aS"/><use transform="matrix(0.009765625,0,0,0.009765625,14.443359375,0)" xlink:href="#aT"/><use transform="matrix(0.009765625,0,0,0.009765625,21.103515625,0)" xlink:href="#aU"/><use transform="matrix(0.009765625,0,0,0.009765625,31.103515625,0)" xlink:href="#aV"/></g><path d="M621-1018c0-132-97-232-225-230-103 0-190 55-259 166l-33-16c70-158 162-278 367-286 172-6 310 118 316 275 0 99-62 201-186 306 148 57 253 167 253 354 0 290-231 482-535 473-91 0-154-11-187-34S83-57 83-83c1-58 69-88 131-65s153 85 239 85c134 0 253-130 253-266 0-88-45-196-92-239-61-55-180-115-303-105v-30c161-30 310-127 310-315" id="aW"/><use transform="matrix(0.009765625,0,0,0.009765625,0,0)" xlink:href="#aW" id="v"/><path d="M691 18c-80-4-108-56-108-150C489-59 430-17 406-6 241 73 62-39 73-217c8-136 70-179 173-244 66-42 180-89 337-146 4-171-23-272-170-275-74-4-138 48-138 112 0 82-7 156-83 154-52 0-86-42-84-97 9-140 160-236 335-230 142 5 253 33 287 138 46 143 5 474 23 647 5 32 15 47 43 50 52-8 50-30 109-80v56C830-32 759 18 691 18zM275-369c-80 99-12 274 108 272 51 0 117-33 200-100v-349c-101 40-166 68-195 85-53 29-90 60-113 92" id="aX"/><path d="M27-36c123 2 139-43 139-171 0-148 4-426-8-541-7-69-71-73-131-47l-15-36 276-112h43v194c107-129 210-194 307-194 181 0 237 135 237 345v391c1 131 14 171 140 171V0H562v-36c127-1 148-31 148-171v-375c-3-142-18-238-142-238-79 0-158 43-237 130v483c1 105 2 123 49 157 16 9 50 14 100 14V0H27v-36" id="aY"/><path d="M68-420c0-248 187-524 443-524 81 0 147 26 200 77-8-130 24-366-31-411-31-26-63-13-109 3l-13-35 273-112h45v1059c0 107 3 173 8 197 10 70 69 75 134 46l11 35L757 28h-46v-131C634-25 572 28 442 28 229 28 68-185 68-420zm643-225c-12-127-84-229-212-237-59 0-108 29-157 79-119 122-115 486-3 613C452-61 594-43 711-173v-472" id="aZ"/><path d="M32-36c124 0 139-41 139-171 0-158 7-417-9-545-7-66-72-68-130-43l-15-36 276-112h43v195c119-114 101-124 215-174 156-69 313 28 334 174 69-80 127-133 174-158 86-47 198-56 275 0 79 57 112 144 112 305v394c-2 131 17 168 138 171V0h-452v-36c120-3 148-29 148-171v-394c2-145-32-222-152-222-114 0-153 52-236 125 0 156 3 328 0 491-3 147 20 164 149 171V0H578v-36c129-5 149-29 149-171v-394c4-140-43-225-156-225-99 0-190 76-235 128v491c1 140 14 170 149 171V0H32v-36" id="ba"/><g id="w"><use transform="matrix(0.009765625,0,0,0.009765625,0,0)" xlink:href="#aT"/><use transform="matrix(0.009765625,0,0,0.009765625,6.66015625,0)" xlink:href="#aX"/><use transform="matrix(0.009765625,0,0,0.009765625,15.537109375,0)" xlink:href="#aY"/><use transform="matrix(0.009765625,0,0,0.009765625,25.537109375,0)" xlink:href="#aZ"/><use transform="matrix(0.009765625,0,0,0.009765625,35.537109375,0)" xlink:href="#aU"/><use transform="matrix(0.009765625,0,0,0.009765625,45.537109375,0)" xlink:href="#ba"/></g><path d="M162 237c25-6 113 34 140 37 20 0 42-10 66-31 56-51 98-196 136-279L175-727c-13-28-62-104-89-124-15-11-40-20-74-28v-37h427v37c-63-5-109 16-111 68 0 26 11 62 33 108l223 462 205-506c11-27 17-54 17-81-5-48-35-49-92-51v-37h298v37c-90 15-99 50-135 138L504 173c-36 89-84 156-142 201s-114 68-168 68c-70 3-135-49-135-112 0-58 43-94 103-93" id="bb"/><path d="M577-905c31 0 31-12 46-38h33v312h-33c-25-98-57-165-97-200s-91-53-152-53c-80-4-156 51-156 119 0 112 57 134 158 183l146 71c135 66 203 153 203 261C725-90 571 28 419 28c-67 0-169-27-246-40-15 0-27 9-36 26h-33v-327h33C164-156 262-39 421-31c84 3 157-59 156-138 0-46-17-85-49-116s-96-71-193-119-160-91-190-130c-30-38-45-86-45-144-2-151 122-265 278-265 45 0 153 38 199 38" id="bc"/><g id="x"><use transform="matrix(0.009765625,0,0,0.009765625,0,0)" xlink:href="#aZ"/><use transform="matrix(0.009765625,0,0,0.009765625,10,0)" xlink:href="#aX"/><use transform="matrix(0.009765625,0,0,0.009765625,18.876953125,0)" xlink:href="#bb"/><use transform="matrix(0.009765625,0,0,0.009765625,28.876953125,0)" xlink:href="#bc"/></g><path d="M76-446c0-285 162-495 423-498 208-2 358 157 352 373H218c-11 236 130 436 334 436 154 0 216-85 268-219l31 20C827-163 678 33 476 28 240 22 76-185 76-446zm142-183h424c-5-121-28-166-96-212-84-58-184-36-252 33-44 43-69 102-76 179" id="bd"/><path d="M195-1321c-2-55 47-103 102-101 54-2 103 47 101 101 2 54-47 104-101 102-54 2-104-48-102-102zM74-36c127 1 140-42 140-171 0-159 7-416-9-546-7-66-72-67-131-42l-14-36 276-112h44v736c1 131 14 170 139 171V0H74v-36" id="be"/><g id="y"><use transform="matrix(0.009765625,0,0,0.009765625,0,0)" xlink:href="#ay"/><use transform="matrix(0.009765625,0,0,0.009765625,13.33984375,0)" xlink:href="#aX"/><use transform="matrix(0.009765625,0,0,0.009765625,22.216796875,0)" xlink:href="#bb"/><use transform="matrix(0.009765625,0,0,0.009765625,32.216796875,0)" xlink:href="#bd"/><use transform="matrix(0.009765625,0,0,0.009765625,41.09375,0)" xlink:href="#bc"/><use transform="matrix(0.009765625,0,0,0.009765625,48.876953125,0)" xlink:href="#be"/><use transform="matrix(0.009765625,0,0,0.009765625,54.43359375,0)" xlink:href="#aX"/><use transform="matrix(0.009765625,0,0,0.009765625,63.310546875,0)" xlink:href="#aY"/></g><path d="M27-36c116-3 140-37 140-171v-829c0-105-2-169-7-193-11-70-66-73-133-46l-14-35 274-112h46v670c74-81 133-133 176-156 85-47 192-48 264 8 37 29 65 74 83 135 30 116 16 395 19 558 2 128 11 171 136 171V0H561v-36c128-1 153-31 148-171-6-151 14-410-15-521-15-58-62-94-132-94-113 0-150 51-229 131v484C328-61 352-43 481-36V0H27v-36" id="bf"/><path d="M232-543c-4 196 107 420 298 415 65 0 124-22 176-67 37-31 72-86 107-167l29 14C807-144 667 28 458 28 228 28 70-196 70-457c0-266 189-486 437-486 149 0 300 100 309 220 7 95-139 110-182 47-11-14-18-41-22-80-7-77-54-120-138-120-167 3-243 162-242 333" id="bg"/><path d="M78-36c124 1 135-44 135-171v-832c0-103-2-167-7-191-7-68-68-72-128-45l-17-35 273-112h45v1215c0 136 18 170 148 171V0H78v-36" id="bh"/><g id="z"><use transform="matrix(0.009765625,0,0,0.009765625,0,0)" xlink:href="#bf"/><use transform="matrix(0.009765625,0,0,0.009765625,10,0)" xlink:href="#be"/><use transform="matrix(0.009765625,0,0,0.009765625,15.556640625,0)" xlink:href="#bd"/><use transform="matrix(0.009765625,0,0,0.009765625,24.43359375,0)" xlink:href="#aT"/><use transform="matrix(0.009765625,0,0,0.009765625,31.09375,0)" xlink:href="#aX"/><use transform="matrix(0.009765625,0,0,0.009765625,39.970703125,0)" xlink:href="#aT"/><use transform="matrix(0.009765625,0,0,0.009765625,46.630859375,0)" xlink:href="#bg"/><use transform="matrix(0.009765625,0,0,0.009765625,55.5078125,0)" xlink:href="#bf"/><use transform="matrix(0.009765625,0,0,0.009765625,65.5078125,0)" xlink:href="#be"/><use transform="matrix(0.009765625,0,0,0.009765625,71.064453125,0)" xlink:href="#bg"/><use transform="matrix(0.009765625,0,0,0.009765625,79.94140625,0)" xlink:href="#aX"/><use transform="matrix(0.009765625,0,0,0.009765625,88.818359375,0)" xlink:href="#bh"/></g><g id="A"><use transform="matrix(0.009765625,0,0,0.009765625,0,0)" xlink:href="#ba"/><use transform="matrix(0.009765625,0,0,0.009765625,15.556640625,0)" xlink:href="#aU"/><use transform="matrix(0.009765625,0,0,0.009765625,25.556640625,0)" xlink:href="#aZ"/><use transform="matrix(0.009765625,0,0,0.009765625,35.556640625,0)" xlink:href="#bd"/><use transform="matrix(0.009765625,0,0,0.009765625,44.43359375,0)" xlink:href="#bh"/></g><path d="M636 401v37C408 326 258 152 162-82c-129-326-94-698 75-974 102-170 235-293 399-366v42c-173 98-271 254-320 485-70 312-46 752 57 989 57 130 142 224 263 307" id="bi"/><path d="M46-1380v-42c230 110 378 287 474 520 129 325 95 698-74 974C344 242 211 365 46 438v-37c173-99 271-253 320-485 69-313 47-752-56-989-57-130-142-225-264-307" id="bj"/><g id="B"><use transform="matrix(0.009765625,0,0,0.009765625,0,0)" xlink:href="#bi"/><use transform="matrix(0.009765625,0,0,0.009765625,6.66015625,0)" xlink:href="#ay"/><use transform="matrix(0.009765625,0,0,0.009765625,20,0)" xlink:href="#az"/><use transform="matrix(0.009765625,0,0,0.009765625,34.443359375,0)" xlink:href="#aA"/><use transform="matrix(0.009765625,0,0,0.009765625,41.103515625,0)" xlink:href="#bj"/></g><path fill="#333" d="M1191-994c-5 160-106 260-245 302 182 32 308 140 308 321 0 155-112 286-240 329C940-14 827 0 674 0H34v-37c152 3 196-33 196-203v-876c6-176-42-205-196-203v-37h586c234-2 388 39 492 152 53 61 79 131 79 210zm-209-8c0-183-166-295-380-287-67 0-127 7-180 22v521c113 21 327 18 408-18 87-38 152-124 152-238zM599-663c-68 0-126 1-177 9v556c77 18 154 27 229 27 211 6 371-100 371-283 0-219-183-309-423-309" id="bk"/><use transform="matrix(0.013020833333333334,0,0,0.013020833333333334,0,0)" xlink:href="#bk" id="C"/><path fill="#666" d="M291-131c192 146 455-35 446-252-6-194-140-332-297-394-73-30-172-47-297-52l260-527h486l-78 170H403l-89 182c177 26 317 92 420 197 134 131 175 333 90 518C743-112 571 15 331 24c-81 0-140-14-177-42s-56-58-56-91c-1-56 70-88 126-63 13 5 36 19 67 41" id="bl"/><use transform="matrix(0.008680555555555556,0,0,0.008680555555555556,0,0)" xlink:href="#bl" id="D"/><g id="E"><use transform="matrix(0.013020833333333334,0,0,0.013020833333333334,0,0)" xlink:href="#bi"/><use transform="matrix(0.013020833333333334,0,0,0.013020833333333334,8.880208333333334,0)" xlink:href="#aX"/><use transform="matrix(0.013020833333333334,0,0,0.013020833333333334,20.716145833333336,0)" xlink:href="#bj"/></g><path d="M481 28C344 24 246-24 150-88v-949c0-104-3-168-8-192-8-70-71-73-133-46l-14-35 275-112h45v664c89-123 184-185 287-185 211 5 351 207 351 450 0 163-54 294-162 393C698-15 595 28 481 28zm42-829c-100 0-138 41-208 107v548c57 55 120 98 217 101 61 0 115-36 170-100 98-114 105-447 0-561-55-60-112-95-179-95" id="bm"/><g id="F"><use transform="matrix(0.013020833333333334,0,0,0.013020833333333334,0,0)" xlink:href="#bi"/><use transform="matrix(0.013020833333333334,0,0,0.013020833333333334,8.880208333333334,0)" xlink:href="#bm"/><use transform="matrix(0.013020833333333334,0,0,0.013020833333333334,22.213541666666668,0)" xlink:href="#bj"/></g><path d="M953-500v142H771V0H606v-358H32v-128l629-898h110v884h182zm-347 0v-673L130-500h476" id="bn"/><use transform="matrix(0.006510416666666667,0,0,0.006510416666666667,0,0)" xlink:href="#bn" id="G"/><path d="M611-151c167 4 231-15 291-110h37L844 0H44v-37c235-215 401-390 497-526s144-260 144-373c0-159-118-297-268-295-155 4-256 99-297 230H83c26-221 158-376 387-383 204-6 390 162 386 356 0 69-16 137-48 206-49 108-129 222-240 343-166 181-270 291-311 328h354" id="bo"/><use transform="matrix(0.006510416666666667,0,0,0.006510416666666667,0,0)" xlink:href="#bo" id="H"/><path d="M291-131c192 146 455-35 446-252-6-194-140-332-297-394-73-30-172-47-297-52l260-527h486l-78 170H403l-89 182c177 26 317 92 420 197 134 131 175 333 90 518C743-112 571 15 331 24c-81 0-140-14-177-42s-56-58-56-91c-1-56 70-88 126-63 13 5 36 19 67 41" id="bp"/><use transform="matrix(0.006510416666666667,0,0,0.006510416666666667,0,0)" xlink:href="#bp" id="I"/><use transform="matrix(0.006510416666666667,0,0,0.006510416666666667,0,0)" xlink:href="#aW" id="J"/></defs></g></svg>